<?xml version="1.0" encoding="utf-8"?>
<!-- Generator: Adobe Illustrator 25.2.0, SVG Export Plug-In . SVG Version: 6.00 Build 0)  -->
<svg version="1.1" id="Capa_1" xmlns="http://www.w3.org/2000/svg" xmlns:xlink="http://www.w3.org/1999/xlink" x="0px" y="0px"
	 viewBox="0 0 325 322" style="enable-background:new 0 0 325 322;" xml:space="preserve">
<style type="text/css">
	.st0{fill:#78BC56;}
	.st1{fill:#60C3DB;}
	.st2{fill:#2E9D5C;}
</style>
<g>
	<g>
		<path class="st0" d="M81.47,290c-9.33,0-18.67-3.54-25.74-10.61l-2.61-2.61c-14.16-14.15-14.16-37.33,0-51.48l61.05-61.05
			l54.1,54.1l-61.05,61.05C100.14,286.46,90.81,290,81.47,290 M222.38,164.24l-54.11-54.1l61.05-61.05
			c7.08-7.08,16.41-10.62,25.74-10.62c9.33,0,18.67,3.55,25.75,10.62l2.6,2.6c14.16,14.17,14.16,37.34,0,51.51L222.38,164.24"/>
		<path class="st1" d="M255.06,290c-9.33,0-18.67-3.54-25.74-10.61l-61.05-61.05l54.11-54.1l61.04,61.05
			c14.16,14.15,14.16,37.33,0,51.48l-2.6,2.61C273.73,286.46,264.4,290,255.06,290 M114.17,164.24l-61.05-61.04
			c-14.16-14.16-14.16-37.33,0-51.51l2.61-2.6c7.08-7.08,16.41-10.62,25.74-10.62s18.67,3.55,25.74,10.62l61.05,61.05L114.17,164.24
			"/>
		<polyline class="st2" points="168.27,218.33 114.17,164.24 168.27,110.14 222.38,164.24 168.27,218.33 		"/>
	</g>
</g>
</svg>
