<svg xmlns="http://www.w3.org/2000/svg" xmlns:xlink="http://www.w3.org/1999/xlink" viewBox="0 0 423.05 156.43"><defs><style>.cls-1,.cls-10,.cls-15{fill:none;}.cls-2{fill:#fff;}.cls-3{fill:#ebf3fe;}.cls-4{fill:#101417;}.cls-5{fill:#003bbf;}.cls-6{fill:#e9e9e9;}.cls-7{fill:#5ceda8;}.cls-8{clip-path:url(#clip-path);}.cls-9{fill:url(#linear-gradient);}.cls-10{stroke:#101417;}.cls-10,.cls-15{stroke-miterlimit:10;stroke-width:2px;}.cls-11{clip-path:url(#clip-path-2);}.cls-12{fill:url(#linear-gradient-2);}.cls-13{clip-path:url(#clip-path-3);}.cls-14{fill:url(#linear-gradient-3);}.cls-15{stroke:#000;}</style><clipPath id="clip-path"><path class="cls-1" d="M251.39,79.11c-4.24,4.43-3.81,11.71,1,16.27l12.27,11.74-10.91,11.4c-4.24,4.43-3.81,11.71,1,16.27s12.06,4.67,16.3.25l10.91-11.4,12.27,11.74c4.76,4.56,12.06,4.67,16.3.24s3.81-11.71-1-16.27l-12.26-11.74,10.91-11.4c4.24-4.43,3.81-11.71-.95-16.27s-12.06-4.67-16.3-.24L280,91.09,267.69,79.35a12.39,12.39,0,0,0-8.52-3.49,10.67,10.67,0,0,0-7.78,3.25"/></clipPath><linearGradient id="linear-gradient" x1="-2047.35" y1="5541.64" x2="-2046.35" y2="5541.64" gradientTransform="matrix(62.43, 0, 0, -62.43, 128070.85, 346086.04)" gradientUnits="userSpaceOnUse"><stop offset="0" stop-color="#ff9201"/><stop offset="0.16" stop-color="#ff9b01"/><stop offset="0.43" stop-color="#feb501"/><stop offset="0.76" stop-color="#fcde00"/><stop offset="1" stop-color="#fbff00"/></linearGradient><clipPath id="clip-path-2"><polygon class="cls-1" points="98.54 36.36 98.54 56.68 120.42 56.68 120.42 145.79 145.75 145.79 145.75 36.36 98.54 36.36"/></clipPath><linearGradient id="linear-gradient-2" x1="-2074.92" y1="5526.99" x2="-2073.92" y2="5526.99" gradientTransform="matrix(162.26, 0, 0, -162.26, 336898.07, 896903.94)" xlink:href="#linear-gradient"/><clipPath id="clip-path-3"><polygon class="cls-1" points="17.33 72 69.39 91.08 17.33 109.99 17.33 129.53 91.75 101.24 91.75 80.92 17.33 52.62 17.33 72"/></clipPath><linearGradient id="linear-gradient-3" x1="-2074.92" y1="5526.97" x2="-2073.92" y2="5526.97" gradientTransform="matrix(162.26, 0, 0, -162.26, 336845.99, 896900.71)" xlink:href="#linear-gradient"/></defs><title>p-1</title><g id="Layer_2" data-name="Layer 2"><g id="Layer_1-2" data-name="Layer 1"><path class="cls-2" d="M358.53,123.88V109.79H336.12v14.09c0,5.75-15.24,10.4-15.24,10.4h52.89s-15.24-4.65-15.24-10.4"/><rect class="cls-3" x="336.12" y="109.79" width="22.41" height="13.73"/><path class="cls-4" d="M381,135.36H313.65l6.91-2.11c5.6-1.71,14.48-5.77,14.48-9.37V108.71h24.57v15.17c0,3.6,8.88,7.66,14.48,9.37Zm-54.14-2.16h40.91c-4.63-2-10.33-5.31-10.33-9.32v-13H337.2v13c0,4-5.7,7.3-10.33,9.32"/><path class="cls-5" d="M417.56,12.68H277.09a4.46,4.46,0,0,0-4.41,4.51v89.14H422V17.19a4.46,4.46,0,0,0-4.41-4.51"/><rect class="cls-2" x="279.85" y="19.31" width="135.13" height="80.32"/><polygon class="cls-6" points="286.61 26.04 415.2 26.04 415.2 19.56 280.13 19.56 280.13 99.52 286.61 99.52 286.61 26.04"/><path class="cls-2" d="M272.69,106.33v5.78a4.46,4.46,0,0,0,4.41,4.51H417.56a4.46,4.46,0,0,0,4.41-4.51v-5.78Z"/><path class="cls-4" d="M417.56,117.7H277.09a5.55,5.55,0,0,1-5.49-5.59V99.84h2.17v12.27a3.38,3.38,0,0,0,3.32,3.43H417.56a3.38,3.38,0,0,0,3.32-3.43V99.84h2.17v12.27a5.55,5.55,0,0,1-5.49,5.59"/><rect class="cls-2" x="279.85" y="95.3" width="135.15" height="5.21"/><rect class="cls-4" x="311.96" y="133.82" width="70.73" height="4.32"/><path class="cls-4" d="M416.06,100.72H278.77V18.23H416.06ZM280.93,98.56h133V20.4h-133Z"/><path class="cls-6" d="M308.24,99.44h75.08V1.08H314.38a6.14,6.14,0,0,0-6.14,6.14Z"/><path class="cls-4" d="M384.4,100.52H307.16V7.72A7.72,7.72,0,0,1,314.88,0H384.4Zm-75.08-2.16h72.92V2.16H314.88a5.56,5.56,0,0,0-5.56,5.56Z"/><path class="cls-2" d="M314,1.08c2.67,0,6.33,1.52,6.33,6.57l0,76.24c0,3.51,1.51,6.45,5.75,6.45,2.68,0,6.47-.77,6.47-6.84l59.67,2.38L392.2,7.65c0-3.63-3.59-6.57-8-6.57Z"/><path class="cls-4" d="M326.11,91.42c-4.34,0-6.83-2.75-6.83-7.53l0-76.24c0-5.22-4.37-5.49-5.24-5.49V0h70.2c5,0,9.09,3.43,9.09,7.65v17h-2.17v-17c0-3-3.11-5.49-6.93-5.49H319.41a7.62,7.62,0,0,1,2,5.49l0,76.24c0,3.56,1.57,5.36,4.67,5.36,2.51,0,5.39-.65,5.39-5.75V82.38l59.67,2.37,0-39.8h2.16l0,42.05-59.71-2.38c-.27,3.33-1.9,6.8-7.51,6.8"/><rect class="cls-4" x="391.14" y="28.74" width="2.16" height="9.05"/><path class="cls-7" d="M331.42,17.06a1.56,1.56,0,0,1-1.14-.77l-1.51-2.65a1.52,1.52,0,0,1-.15-1.18,1.55,1.55,0,0,1,.72-.94,1.62,1.62,0,0,1,.77-.21,1.55,1.55,0,0,1,1.35.79l.44.77.7-.52,3.62-3.61a1.55,1.55,0,0,1,2.19,2.19l-5.68,5.69a1.56,1.56,0,0,1-1.1.45h-.21"/><path class="cls-6" d="M405.84,52.88V83.5s.63,6.85-9,6.85H326.63c.83,0,5.95-.46,5.95-6.83V60.34s-.72-7.46,7-7.46Z"/><path class="cls-2" d="M326.48,90.34h0"/><rect class="cls-4" x="353.2" y="89.26" width="7.7" height="2.16"/><path class="cls-4" d="M396.85,91.43H371.44V89.27h25.41c3.08,0,5.31-.73,6.63-2.18a5.07,5.07,0,0,0,1.28-3.49V54H339.6a5.84,5.84,0,0,0-4.53,1.65,6.87,6.87,0,0,0-1.42,4.63V83.51a8,8,0,0,1-2,5.75h14.14v2.16H326.63l0-2.16c.82,0,4.9-.4,4.9-5.75V60.34a8.82,8.82,0,0,1,2-6.18,7.88,7.88,0,0,1,6.13-2.36h67.32V83.49a7.25,7.25,0,0,1-1.84,5.06c-1.75,1.91-4.51,2.88-8.23,2.88"/><polygon class="cls-4" points="326.55 91.42 326.42 91.42 326.48 89.26 326.63 89.26 326.67 91.42 326.55 91.42"/><path class="cls-2" d="M344.67,61.23c2.25-7.39-5.08-8.35-5.08-8.35h66.24c7.58,0,8.2,4.69,7.52,8.35Z"/><rect class="cls-4" x="360.36" y="60.15" width="7.29" height="2.16"/><path class="cls-4" d="M414.25,62.31h-32V60.15h30.18a5.54,5.54,0,0,0-.95-4.31c-1-1.25-2.93-1.88-5.64-1.88H344.27a6.78,6.78,0,0,1,.92,1.12,6.89,6.89,0,0,1,.85,5.07h9.32v2.16H343.21l.43-1.39a5.48,5.48,0,0,0-.26-4.65A6.14,6.14,0,0,0,339.45,54l.14-2.16h66.24c3.38,0,5.84.89,7.3,2.66s1.83,4,1.29,7Z"/><path class="cls-7" d="M335.14,32.69h-5.86a.72.72,0,0,1-.72-.72V26.11a.71.71,0,0,1,.72-.71h5.86a.71.71,0,0,1,.72.71V32a.72.72,0,0,1-.72.72M330,31.25h4.42V26.83H330Z"/><path class="cls-7" d="M335.14,49.36h-5.86a.72.72,0,0,1-.72-.72V42.78a.72.72,0,0,1,.72-.72h5.86a.72.72,0,0,1,.72.72v5.86a.72.72,0,0,1-.72.72M330,47.92h4.42V43.5H330Z"/><rect class="cls-4" x="344.96" y="10.91" width="31.34" height="2.16"/><rect class="cls-4" x="352.53" y="15.24" width="16.21" height="2.16"/><rect class="cls-4" x="344.96" y="26.04" width="31.34" height="2.16"/><rect class="cls-4" x="352.53" y="30.36" width="16.21" height="2.16"/><rect class="cls-4" x="344.96" y="41.17" width="31.34" height="2.16"/><rect class="cls-4" x="352.53" y="45.49" width="16.21" height="2.16"/><g class="cls-8"><rect class="cls-9" x="245.36" y="73.4" width="71.09" height="68.52" transform="translate(-5.67 16.16) rotate(-3.26)"/></g><path class="cls-10" d="M292,86.62,281.06,98,268.8,86.27C264,81.71,256.74,81.6,252.5,86s-3.81,11.71.95,16.27l12.27,11.75-10.91,11.39c-4.24,4.43-3.81,11.72.95,16.28s12.06,4.66,16.3.24L283,130.56l12.27,11.74c4.76,4.56,12.06,4.67,16.29.24s3.81-11.71-.95-16.27l-12.27-11.74,10.92-11.4c4.23-4.43,3.81-11.71-1-16.27S296.21,82.19,292,86.62Z"/><path class="cls-4" d="M263.63,65.49A4.49,4.49,0,1,1,268.12,61a4.49,4.49,0,0,1-4.49,4.48m0-6.83A2.35,2.35,0,1,0,266,61a2.35,2.35,0,0,0-2.35-2.35"/><rect class="cls-4" x="237.87" y="33.25" width="2.19" height="6.18" transform="translate(44.3 179.62) rotate(-45)"/><rect class="cls-4" x="235.88" y="35.24" width="6.18" height="2.19" transform="translate(44.31 179.63) rotate(-45)"/><rect class="cls-4" x="233.55" y="115.46" width="1.82" height="2.43"/><path class="cls-4" d="M227.92,117.89H223.7v-2.43h4.22Zm-9.85,0h-4.22v-2.43h4.22Z"/><rect class="cls-4" x="206.39" y="115.46" width="1.82" height="2.43"/><g class="cls-11"><rect class="cls-12" x="63.45" y="55.44" width="117.39" height="71.28" transform="translate(5.25 188.8) rotate(-76.61)"/></g><g class="cls-13"><rect class="cls-14" x="8.51" y="45.97" width="92.06" height="90.21" transform="translate(-46.69 123.04) rotate(-76.61)"/></g><polygon class="cls-15" points="149.5 33.96 149.5 143.4 124.18 143.4 124.18 54.28 102.29 54.28 102.29 33.96 149.5 33.96"/><polygon class="cls-15" points="90.26 77.61 90.26 97.94 15.84 126.23 15.84 106.69 67.9 87.78 15.84 68.7 15.84 49.32 90.26 77.61"/></g></g></svg>