<svg xmlns="http://www.w3.org/2000/svg" xmlns:xlink="http://www.w3.org/1999/xlink" viewBox="0 0 560.39 192.85"><defs><style>.cls-1,.cls-36{fill:none;}.cls-2{isolation:isolate;}.cls-3{fill:#101417;}.cls-13,.cls-4{fill:#fff;}.cls-5{fill:#003bbf;}.cls-15,.cls-6{fill:#e9e9e9;}.cls-10,.cls-7{fill:#5ceda8;}.cls-8{clip-path:url(#clip-path);}.cls-9{fill:url(#linear-gradient);}.cls-10,.cls-13,.cls-14,.cls-15{fill-rule:evenodd;}.cls-11{clip-path:url(#clip-path-2);}.cls-12{fill:url(#linear-gradient-2);}.cls-14{fill:#eceeed;}.cls-16{clip-path:url(#clip-path-3);}.cls-17{fill:url(#linear-gradient-3);}.cls-18{mix-blend-mode:multiply;}.cls-19{clip-path:url(#clip-path-4);}.cls-20{clip-path:url(#clip-path-5);}.cls-21{clip-path:url(#clip-path-6);}.cls-22{clip-path:url(#clip-path-7);}.cls-23{clip-path:url(#clip-path-8);}.cls-24{clip-path:url(#clip-path-9);}.cls-25{clip-path:url(#clip-path-10);}.cls-26{clip-path:url(#clip-path-11);}.cls-27{clip-path:url(#clip-path-12);}.cls-28{clip-path:url(#clip-path-13);}.cls-29{clip-path:url(#clip-path-14);}.cls-30{fill:#ffe32d;}.cls-31{clip-path:url(#clip-path-15);}.cls-32{clip-path:url(#clip-path-16);}.cls-33{fill:url(#linear-gradient-4);}.cls-34{clip-path:url(#clip-path-17);}.cls-35{fill:url(#linear-gradient-5);}.cls-36{stroke:#000;stroke-miterlimit:10;stroke-width:2px;}</style><clipPath id="clip-path"><rect class="cls-1" x="406.82" y="24.48" width="21.38" height="37.44"/></clipPath><linearGradient id="linear-gradient" x1="-1997.08" y1="5218.33" x2="-1996.08" y2="5218.33" gradientTransform="matrix(0, -29.01, -29.01, 0, 151803.44, -57871.19)" gradientUnits="userSpaceOnUse"><stop offset="0" stop-color="#ff9201"/><stop offset="0.16" stop-color="#ff9b01"/><stop offset="0.43" stop-color="#feb501"/><stop offset="0.76" stop-color="#fcde00"/><stop offset="1" stop-color="#fbff00"/></linearGradient><clipPath id="clip-path-2"><path class="cls-1" d="M270.51,115.66a5.28,5.28,0,0,0-5.22,5.34v53H356.9V121a5.27,5.27,0,0,0-5.21-5.34Z"/></clipPath><linearGradient id="linear-gradient-2" x1="-1985.62" y1="5251.26" x2="-1984.62" y2="5251.26" gradientTransform="matrix(91.61, 0, 0, -91.61, 182165.41, 481206.51)" xlink:href="#linear-gradient"/><clipPath id="clip-path-3"><rect class="cls-1" x="312.77" y="51.97" width="57.55" height="36.85"/></clipPath><linearGradient id="linear-gradient-3" x1="-1979.43" y1="5251.23" x2="-1978.43" y2="5251.23" gradientTransform="matrix(57.55, 0, 0, -57.55, 114220.15, 302254.98)" gradientUnits="userSpaceOnUse"><stop offset="0" stop-color="#4b84bc"/><stop offset="1" stop-color="#99efd9"/></linearGradient><clipPath id="clip-path-4"><rect class="cls-1" x="350.56" y="144.07" width="8.4" height="8.4"/></clipPath><clipPath id="clip-path-5"><rect class="cls-1" x="351.98" y="144.07" width="5.56" height="5.55"/></clipPath><clipPath id="clip-path-6"><rect class="cls-1" x="292.54" y="144.07" width="8.41" height="8.4"/></clipPath><clipPath id="clip-path-7"><rect class="cls-1" x="293.97" y="144.07" width="5.55" height="5.55"/></clipPath><clipPath id="clip-path-8"><rect class="cls-1" x="333.38" y="67.39" width="8.4" height="8.4"/></clipPath><clipPath id="clip-path-9"><rect class="cls-1" x="334.8" y="67.39" width="5.56" height="5.55"/></clipPath><clipPath id="clip-path-10"><rect class="cls-1" x="396.08" y="154.23" width="8.4" height="8.4"/></clipPath><clipPath id="clip-path-11"><rect class="cls-1" x="404.11" y="154.23" width="5.56" height="5.56"/></clipPath><clipPath id="clip-path-12"><rect class="cls-1" x="454.09" y="118.96" width="8.4" height="8.4"/></clipPath><clipPath id="clip-path-13"><rect class="cls-1" x="455.52" y="118.96" width="5.55" height="5.55"/></clipPath><clipPath id="clip-path-14"><rect class="cls-1" x="413.26" y="38.4" width="8.4" height="8.4"/></clipPath><clipPath id="clip-path-15"><rect class="cls-1" x="414.68" y="38.4" width="5.56" height="5.55"/></clipPath><clipPath id="clip-path-16"><path class="cls-1" d="M104.56,82.1,123,94C128.32,86.63,136.29,83,145.67,83c11.57,0,17.51,5,17.51,13.6,0,5.32-1.72,10.94-11.41,20.17l-42.21,39.86v16.42h82.7V152.45H145.2l25.17-23.76c15.33-14.23,18.3-23.92,18.3-34.55,0-19.86-16.26-32.36-40.65-32.36-19.7,0-35,8-43.46,20.32"/></clipPath><linearGradient id="linear-gradient-4" x1="-1994.74" y1="5245.59" x2="-1993.74" y2="5245.59" gradientTransform="matrix(162.26, 0, 0, -162.26, 323717.37, 851270.06)" xlink:href="#linear-gradient"/><clipPath id="clip-path-17"><polygon class="cls-1" points="17.33 99.3 69.39 118.37 17.33 137.29 17.33 156.83 91.75 128.53 91.75 108.21 17.33 79.91 17.33 99.3"/></clipPath><linearGradient id="linear-gradient-5" x1="-1994.74" y1="5245.56" x2="-1993.74" y2="5245.56" gradientTransform="matrix(162.26, 0, 0, -162.26, 323645.01, 851265.8)" xlink:href="#linear-gradient"/></defs><title>p-2</title><g class="cls-2"><g id="Layer_2" data-name="Layer 2"><g id="Layer_1-2" data-name="Layer 1"><path class="cls-3" d="M388.51,149.55h-.78l.06-2.2c.71,0,1.41,0,2.11,0l.12,2.2c-.5,0-1,0-1.51,0m-5.34-.52c-.75-.15-1.5-.33-2.23-.54l.61-2.12c.67.19,1.36.36,2.05.5Zm11.4-.15-.49-2.15c.69-.16,1.37-.34,2-.55l.66,2.1c-.72.23-1.46.43-2.21.6m-17.92-2c-.69-.33-1.37-.7-2-1.09l1.12-1.89c.6.35,1.23.69,1.86,1Zm24.37-.33-1-2c.62-.33,1.24-.68,1.83-1l1.18,1.86c-.65.41-1.32.79-2,1.14m-30.13-3.42c-.58-.49-1.14-1-1.69-1.56l1.56-1.55c.5.5,1,1,1.56,1.43Zm35.79-.48L405.21,141c.53-.47,1-1,1.52-1.47l1.6,1.51c-.53.56-1.08,1.09-1.65,1.6M366.25,138c-.45-.63-.87-1.28-1.25-1.93l1.9-1.12c.35.6.74,1.2,1.14,1.77Zm44.94-.6-1.83-1.23c.39-.58.76-1.19,1.1-1.8l1.93,1.07c-.37.67-.77,1.33-1.2,2M363,132c-.27-.71-.51-1.45-.73-2.18l2.12-.61c.2.68.42,1.35.67,2Zm51.26-.69-2.09-.73c.24-.66.44-1.34.62-2l2.13.55c-.19.74-.41,1.47-.66,2.2m-52.87-6c-.08-.76-.14-1.53-.16-2.29l2.21-.06c0,.71.06,1.41.14,2.11Zm54.3-.73-2.2-.18c.06-.7.09-1.41.09-2.11h2.2c0,.76,0,1.53-.09,2.29m-2.35-5.74c-.1-.7-.22-1.4-.37-2.08l2.15-.48c.16.74.3,1.5.41,2.26Zm-49.66-.09-2.19-.31c.11-.76.25-1.52.42-2.26l2.15.49a20.58,20.58,0,0,0-.38,2.08m48-6c-.27-.65-.57-1.3-.89-1.92l2-1c.35.68.68,1.38,1,2.09Zm-46.36-.09-2-.85c.29-.7.62-1.4,1-2.08l2,1q-.5.94-.9,1.92m43.23-5.4c-.42-.56-.87-1.11-1.33-1.64l1.64-1.46c.51.57,1,1.16,1.46,1.78Zm-40.08-.08-1.76-1.33c.46-.61.95-1.21,1.46-1.78l1.64,1.48c-.46.52-.92,1.07-1.34,1.63m35.69-4.46c-.55-.44-1.12-.86-1.7-1.25l1.23-1.83c.63.42,1.25.88,1.85,1.36Zm-31.28-.06-1.37-1.73c.59-.47,1.22-.93,1.86-1.35l1.22,1.83c-.59.39-1.16.81-1.71,1.25m25.89-3.24a21.1,21.1,0,0,0-2-.79l.74-2.08c.72.26,1.44.54,2.13.86Zm-20.49,0-.9-2c.71-.31,1.42-.6,2.14-.84l.72,2.08c-.65.23-1.31.49-2,.78m14.45-1.81c-.69-.11-1.4-.21-2.09-.27l.19-2.19c.75.06,1.52.16,2.27.29Zm-8.41,0L384,95.37c.75-.12,1.52-.22,2.28-.28l.18,2.2c-.7.06-1.41.14-2.1.26"/><path class="cls-4" d="M490.32,169.24V156H469.18v13.28c0,5.42-14.37,9.81-14.37,9.81h49.87s-14.36-4.39-14.36-9.81"/><path class="cls-3" d="M504.68,180.15H454.81a1.1,1.1,0,0,1-.32-2.16c5.26-1.6,13.59-5.4,13.59-8.75V156a1.11,1.11,0,0,1,1.1-1.11h21.14a1.11,1.11,0,0,1,1.1,1.11v13.28c0,3.35,8.33,7.15,13.59,8.75a1.11,1.11,0,0,1-.33,2.16M460.86,178h37.78c-4.31-1.93-9.43-5-9.43-8.71V157.06H470.29v12.18c0,3.72-5.12,6.78-9.43,8.71"/><path class="cls-5" d="M533.36,79.21H426.14a3.41,3.41,0,0,0-3.37,3.44v68h114v-68a3.4,3.4,0,0,0-3.36-3.44"/><rect class="cls-4" x="428.24" y="84.27" width="103.15" height="61.31"/><polygon class="cls-6" points="435.04 91.07 530.93 91.07 530.93 84.46 428.43 84.46 428.43 145.08 435.04 145.08 435.04 91.07"/><path class="cls-3" d="M532.49,146.69H427.14V83.17H532.49Zm-103.14-2.21H530.29V85.38H429.35Z"/><path class="cls-5" d="M422.77,150.69v4.6a3.41,3.41,0,0,0,3.37,3.45H533.36a3.4,3.4,0,0,0,3.36-3.45v-4.6Z"/><path class="cls-3" d="M533.36,159.84H426.14a4.52,4.52,0,0,1-4.47-4.55v-4.68h2.21v4.68a2.31,2.31,0,0,0,2.26,2.35H533.36a2.31,2.31,0,0,0,2.26-2.35v-4.68h2.21v4.68a4.52,4.52,0,0,1-4.47,4.55"/><path class="cls-3" d="M459.49,134.43l-.23-2.19a9.31,9.31,0,0,0,1.87-.4l.68,2.1a11.4,11.4,0,0,1-2.32.49m-4.68-.49a11,11,0,0,1-2.17-1l1.11-1.91a9.07,9.07,0,0,0,1.74.78Zm11.07-2.36-1.47-1.64a9,9,0,0,0,1.27-1.42l1.79,1.3a11.55,11.55,0,0,1-1.59,1.76m-16.74-1.75a11.82,11.82,0,0,1-1.19-2l2-.9a9,9,0,0,0,.95,1.65Zm20.24-4.31-2.15-.46a9.28,9.28,0,0,0,.19-1.9l2.21,0v0a11.07,11.07,0,0,1-.25,2.36M447,123.18v0a11.37,11.37,0,0,1,.24-2.33l2.16.45a9.17,9.17,0,0,0-.2,1.88Zm19.65-3.76a9.1,9.1,0,0,0-1-1.65l1.78-1.3a10.66,10.66,0,0,1,1.19,2Zm-15.72-1.61-1.78-1.29a11,11,0,0,1,1.58-1.76l1.47,1.64a9,9,0,0,0-1.27,1.41m11.93-2.57a9,9,0,0,0-1.74-.77l.68-2.1a11.28,11.28,0,0,1,2.16,1Zm-7.38-.75-.68-2.1a11.17,11.17,0,0,1,2.31-.49l.24,2.19a9,9,0,0,0-1.87.4"/><path class="cls-7" d="M409.12,120a1.51,1.51,0,0,0-1.15-1.21l-2.21-.38a1.91,1.91,0,0,1-1.36-1.17l-.89-2.2a1.86,1.86,0,0,1,.16-1.77l1.31-1.84a1.48,1.48,0,0,0,0-1.66l-1.19-1.42a1.52,1.52,0,0,0-1.65-.3l-2,1a1.87,1.87,0,0,1-1.76-.18s-.34-.26-1-.67-1-.58-1-.58a1.9,1.9,0,0,1-.93-1.5v-2.26a1.51,1.51,0,0,0-1-1.34l-1.79-.44a1.51,1.51,0,0,0-1.51.72l-.34.65-.41.78-.3.56a1.92,1.92,0,0,1-1.53.93l-.87.06-.39,0-1.1.08a1.91,1.91,0,0,1-1.65-.7l-1.33-1.81a1.48,1.48,0,0,0-1.59-.5l-1.71.69A1.5,1.5,0,0,0,379,105l.32,2.24a1.89,1.89,0,0,1-.7,1.64l-1.81,1.54a1.93,1.93,0,0,1-1.73.4l-2.15-.69a1.55,1.55,0,0,0-1.6.52s-.17.22-.51.78l-.47.8a1.53,1.53,0,0,0,.24,1.66l1.57,1.62a2,2,0,0,1,.41,1.74l-.58,2.31a1.94,1.94,0,0,1-1.16,1.35l-2.14.71a1.49,1.49,0,0,0-1,1.35l.13,1.86a1.51,1.51,0,0,0,1.15,1.21l2.22.38a2,2,0,0,1,1.36,1.17l.89,2.2a1.92,1.92,0,0,1-.15,1.77l-1.32,1.84a1.44,1.44,0,0,0,0,1.66l1.17,1.42a1.52,1.52,0,0,0,1.65.3l2-1a1.85,1.85,0,0,1,1.75.17s.36.27,1,.68,1,.59,1,.59a1.86,1.86,0,0,1,.94,1.5V141a1.51,1.51,0,0,0,1,1.33l1.79.44a1.49,1.49,0,0,0,1.51-.72l1.05-2a1.94,1.94,0,0,1,1.53-.93l2.36-.17a1.9,1.9,0,0,1,1.65.7l1.33,1.81a1.49,1.49,0,0,0,1.6.5l1.71-.71a1.47,1.47,0,0,0,.8-1.46l-.32-2.22a1.9,1.9,0,0,1,.7-1.65l1.81-1.54a1.93,1.93,0,0,1,1.74-.4l2.15.68a1.53,1.53,0,0,0,1.6-.51s.16-.22.51-.78.46-.8.46-.8a1.55,1.55,0,0,0-.23-1.67l-1.57-1.61a1.94,1.94,0,0,1-.41-1.74l.57-2.31a1.94,1.94,0,0,1,1.17-1.35l2.14-.71a1.46,1.46,0,0,0,.95-1.37Zm-10.64,8.63a11.73,11.73,0,1,1-11.38-17.84,7.58,7.58,0,0,1,1.17-.07,6.59,6.59,0,0,1,1.09,0,7.89,7.89,0,0,1,1.18.13,11.6,11.6,0,0,1,4.17,1.59,11.74,11.74,0,0,1,3.77,16.16"/><path class="cls-7" d="M392.92,115.33a8.19,8.19,0,0,0-2.47-1,8.4,8.4,0,1,0,2.47,1M391.07,124a3,3,0,1,1-5.11-3.18,2.86,2.86,0,0,1,.9-.93,3,3,0,0,1,3.25,0,.85.85,0,0,1,.19.14,3,3,0,0,1,.77,4"/><path class="cls-3" d="M384.67,143.9a2.12,2.12,0,0,1-.44,0l-1.84-.45a2.6,2.6,0,0,1-1.84-2.4v-2.26a.8.8,0,0,0-.31-.51s-.44-.22-1.13-.65-1.08-.72-1.08-.72a.72.72,0,0,0-.4-.1.66.66,0,0,0-.21,0l-2,1a2.7,2.7,0,0,1-2.94-.53l-1.22-1.47a2.57,2.57,0,0,1-.07-3l1.32-1.83a.91.91,0,0,0,0-.65L371.6,128a.91.91,0,0,0-.53-.51l-2.21-.38a2.6,2.6,0,0,1-2.05-2.15l-.14-1.92a2.6,2.6,0,0,1,1.71-2.48l2.14-.71a.9.9,0,0,0,.43-.49l.59-2.39a.85.85,0,0,0-.14-.7l-1.57-1.63a2.61,2.61,0,0,1-.42-2.93s.15-.27.51-.87.56-.85.56-.85a2.68,2.68,0,0,1,2.82-.92l2.15.69h.13a.82.82,0,0,0,.5-.16l1.87-1.58a.9.9,0,0,0,.32-.66l-.32-2.22a2.62,2.62,0,0,1,1.43-2.63l1.77-.71a2.49,2.49,0,0,1,2.89.87l1.33,1.81a.87.87,0,0,0,.57.26l2.48-.18a.88.88,0,0,0,.63-.35l1.05-2a2.63,2.63,0,0,1,2.69-1.28l1.84.45a2.63,2.63,0,0,1,1.85,2.38v2.29a.8.8,0,0,0,.33.52s.42.21,1.11.63S399,108,399,108a.65.65,0,0,0,.37.09.52.52,0,0,0,.23,0l2-1a2.67,2.67,0,0,1,2.93.53l1.23,1.47a2.58,2.58,0,0,1,.08,3l-1.32,1.83a.89.89,0,0,0-.06.66l.92,2.25a.89.89,0,0,0,.53.5l2.21.39a2.61,2.61,0,0,1,2.06,2.15l.13,1.91a2.59,2.59,0,0,1-1.69,2.49l-2.16.71a.87.87,0,0,0-.42.5l-.59,2.38a.87.87,0,0,0,.14.71l1.56,1.6a2.64,2.64,0,0,1,.42,2.95s-.14.28-.51.88-.56.85-.56.85a2.64,2.64,0,0,1-2.09,1,2.25,2.25,0,0,1-.74-.12l-2.13-.68h-.13a.91.91,0,0,0-.52.16l-1.86,1.58a.92.92,0,0,0-.32.66l.32,2.21a2.57,2.57,0,0,1-1.43,2.63l-1.76.72a2.25,2.25,0,0,1-.83.15,2.57,2.57,0,0,1-2.07-1l-1.33-1.8a.83.83,0,0,0-.57-.26l-2.47.18a.91.91,0,0,0-.63.34l-1.06,2a2.61,2.61,0,0,1-2.25,1.32m-7.05-9.34a3,3,0,0,1,1.73.54,9.45,9.45,0,0,0,.91.62c.57.35.93.54.95.55a2.91,2.91,0,0,1,1.54,2.47V141a.42.42,0,0,0,.21.28l1.74.43h0a.44.44,0,0,0,.31-.16l1-2a3,3,0,0,1,2.48-1.51l2.3-.17h.27a3,3,0,0,1,2.35,1.16l1.33,1.81a.44.44,0,0,0,.29.12l1.72-.7a.46.46,0,0,0,.12-.29l-.32-2.22a3,3,0,0,1,1.15-2.69l1.74-1.49a3.09,3.09,0,0,1,2.8-.6l2.13.67a.49.49,0,0,0,.38-.12s.17-.23.46-.7.39-.66.41-.7a.48.48,0,0,0,0-.43l-1.56-1.6a3,3,0,0,1-.67-2.84l.55-2.24a3,3,0,0,1,1.88-2.13l2.16-.71a.46.46,0,0,0,.19-.28l-.13-1.81a.5.5,0,0,0-.24-.2l-2.21-.38a3,3,0,0,1-2.22-1.91l-.86-2.13a2.92,2.92,0,0,1,.29-2.85l1.31-1.82a.43.43,0,0,0,0-.35l-1.16-1.38s-.1,0-.23,0l-2.12,1a3,3,0,0,1-2.91-.29s-.34-.26-.9-.61-.92-.52-.94-.53a3,3,0,0,1-1.55-2.48v-2.27a.48.48,0,0,0-.21-.28l-1.74-.43a.5.5,0,0,0-.28.17l-1,2a3,3,0,0,1-2.5,1.51l-2.29.17h-.27a3,3,0,0,1-2.35-1.16L382.26,104a.39.39,0,0,0-.29-.12l-1.71.69a.6.6,0,0,0-.13.29l.32,2.23a3,3,0,0,1-1.15,2.69l-1.74,1.49a3.08,3.08,0,0,1-2.78.61l-2.15-.69a.47.47,0,0,0-.37.12s-.17.24-.46.7l-.45.76a.5.5,0,0,0,.06.35l1.58,1.63a3,3,0,0,1,.67,2.83l-.56,2.26a3,3,0,0,1-1.88,2.12l-2.15.71a.43.43,0,0,0-.2.29l.13,1.8a.59.59,0,0,0,.25.2l2.21.38a3.05,3.05,0,0,1,2.21,1.91l.87,2.13a3,3,0,0,1-.27,2.83l-1.33,1.85a.42.42,0,0,0,0,.33l1.16,1.39s.09,0,.22,0l2.12-1a2.69,2.69,0,0,1,1.18-.26"/><path class="cls-3" d="M388.51,135.26A12.84,12.84,0,0,1,387,109.68a13,13,0,0,1,2.5,0,8.35,8.35,0,0,1,1.27.14,12.84,12.84,0,0,1-2.22,25.48m.11-23.46h-.42a7.61,7.61,0,0,0-1,.06,10.59,10.59,0,1,0,3.11.08,7.34,7.34,0,0,0-1-.11,6,6,0,0,0-.69,0"/><path class="cls-3" d="M555.77,101.56a4.63,4.63,0,1,1,4.62-4.63,4.64,4.64,0,0,1-4.62,4.63m0-7a2.43,2.43,0,1,0,2.42,2.42,2.42,2.42,0,0,0-2.42-2.42"/><path class="cls-3" d="M244.39,143a4.63,4.63,0,1,1,4.63-4.63,4.63,4.63,0,0,1-4.63,4.63m0-7a2.42,2.42,0,1,0,2.42,2.42,2.43,2.43,0,0,0-2.42-2.42"/><path class="cls-3" d="M396.89,82.31a4.63,4.63,0,1,1,4.62-4.62,4.63,4.63,0,0,1-4.62,4.62m0-7a2.42,2.42,0,1,0,2.42,2.42,2.42,2.42,0,0,0-2.42-2.42"/><path class="cls-3" d="M352,11.12a4.63,4.63,0,1,1,4.63-4.62A4.63,4.63,0,0,1,352,11.12m0-7a2.42,2.42,0,1,0,2.42,2.42A2.42,2.42,0,0,0,352,4.08"/><path class="cls-3" d="M290.9,76.21a4.63,4.63,0,1,1,4.63-4.63,4.63,4.63,0,0,1-4.63,4.63m0-7a2.42,2.42,0,1,0,2.42,2.42,2.43,2.43,0,0,0-2.42-2.42"/><path class="cls-3" d="M473.1,29.08a4.63,4.63,0,1,1,4.63-4.62,4.62,4.62,0,0,1-4.63,4.62m0-7a2.42,2.42,0,1,0,2.42,2.42A2.42,2.42,0,0,0,473.1,22"/><rect class="cls-3" x="521.81" y="68.39" width="1.65" height="2.21"/><path class="cls-3" d="M516.87,70.6h-3.7V68.39h3.7Zm-8.64,0h-3.7V68.39h3.7Zm-8.64,0h-3.7V68.39h3.7Z"/><rect class="cls-3" x="489.3" y="68.39" width="1.65" height="2.21"/><rect class="cls-3" x="484.61" y="41.5" width="1.65" height="2.21"/><path class="cls-3" d="M479.5,43.7h-3.84V41.5h3.84Zm-8.95,0h-3.84V41.5h3.84Z"/><rect class="cls-3" x="459.94" y="41.5" width="1.65" height="2.21"/><rect class="cls-3" x="408.4" y="8.92" width="1.65" height="2.21"/><path class="cls-3" d="M403.28,11.12h-3.84V8.92h3.84Zm-8.95,0h-3.84V8.92h3.84Z"/><rect class="cls-3" x="383.72" y="8.92" width="1.65" height="2.21"/><rect class="cls-3" x="304.06" y="100.95" width="1.65" height="2.21"/><path class="cls-3" d="M298.94,103.15h-3.83V101h3.83Zm-8.95,0h-3.84V101H290Z"/><rect class="cls-3" x="279.38" y="100.95" width="1.65" height="2.21"/><rect class="cls-3" x="358.37" y="34.66" width="1.65" height="2.21"/><path class="cls-3" d="M353.25,36.86h-3.83v-2.2h3.83Zm-8.95,0h-3.84v-2.2h3.84Z"/><rect class="cls-3" x="333.7" y="34.66" width="1.65" height="2.21"/><rect class="cls-3" x="296.31" y="45.7" width="1.65" height="2.21"/><path class="cls-3" d="M292.34,47.9h-3V45.7h3Zm-6.94,0h-3V45.7h3Z"/><rect class="cls-3" x="276.8" y="45.7" width="1.65" height="2.21"/><path class="cls-3" d="M258,158.79h-3.3v-2.21H258Zm-7.71,0h-3.31v-2.21h3.31Zm-7.72,0h-3.3v-2.21h3.3Zm-7.71,0H231.5v-2.21h3.31Zm-7.72,0h-3.3v-2.21h3.3Z"/><rect class="cls-3" x="317.43" y="102.83" width="2.2" height="6.21" transform="translate(18.4 256.28) rotate(-45)"/><rect class="cls-3" x="315.43" y="104.83" width="6.21" height="2.2" transform="translate(18.41 256.31) rotate(-45.01)"/><rect class="cls-3" x="392.26" y="35.09" width="2.2" height="6.21" transform="translate(88.22 289.35) rotate(-45)"/><rect class="cls-3" x="390.26" y="37.09" width="6.21" height="2.2" transform="translate(88.25 289.38) rotate(-45.01)"/><rect class="cls-3" x="459.97" y="-0.13" width="2.2" height="6.21" transform="translate(132.99 326.95) rotate(-45.01)"/><rect class="cls-3" x="457.96" y="1.87" width="6.21" height="2.2" transform="translate(132.99 326.95) rotate(-45.01)"/><rect class="cls-3" x="457.77" y="62.03" width="2.2" height="6.21" transform="translate(88.35 343.57) rotate(-45)"/><rect class="cls-3" x="455.77" y="64.03" width="6.21" height="2.2" transform="translate(88.47 343.73) rotate(-45.03)"/><rect class="cls-3" x="298.42" y="27.07" width="2.2" height="6.21" transform="translate(66.44 220.7) rotate(-45.02)"/><rect class="cls-3" x="296.42" y="29.07" width="6.21" height="2.2" transform="translate(66.42 220.67) rotate(-45.01)"/><path class="cls-4" d="M409.06,17.82H426.3a5.44,5.44,0,0,1,5.44,5.44V64.1a5.43,5.43,0,0,1-5.43,5.43H409.06a5.44,5.44,0,0,1-5.44-5.44V23.25A5.44,5.44,0,0,1,409.06,17.82Z"/><g class="cls-8"><rect class="cls-9" x="406.37" y="24.23" width="22.27" height="37.95" transform="translate(-0.92 10.07) rotate(-1.38)"/></g><path class="cls-3" d="M428.2,63H406.82a1.1,1.1,0,0,1-1.1-1.1V24.48a1.1,1.1,0,0,1,1.1-1.1H428.2a1.1,1.1,0,0,1,1.1,1.1V61.92a1.1,1.1,0,0,1-1.1,1.1m-20.28-2.2H427.1V25.58H407.92Z"/><path class="cls-10" d="M417.51,20.45a.61.61,0,0,1,.61.61.61.61,0,1,1-1.22,0,.61.61,0,0,1,.61-.61"/><path class="cls-10" d="M419.24,67.14h-3.47a1.33,1.33,0,1,1,0-2.66h3.47a1.33,1.33,0,0,1,0,2.66"/><path class="cls-3" d="M417.48,51.87h0a9.35,9.35,0,0,1-2.35-.3l.57-2.14a6.7,6.7,0,0,0,1.78.24Zm4.58-1.24-1.1-1.9a7.37,7.37,0,0,0,1.44-1.11L424,49.18a9.56,9.56,0,0,1-1.9,1.45M411,49.21a9.18,9.18,0,0,1-1.46-1.89l1.9-1.11a7.31,7.31,0,0,0,1.11,1.43Zm15.33-4.14-2.13-.57a7.22,7.22,0,0,0,.23-1.8l1.55-.06.66,0a9.49,9.49,0,0,1-.31,2.39m-18-2.33v0a9.14,9.14,0,0,1,.3-2.33l2.13.56a7,7,0,0,0-.22,1.77Zm15.18-3.58a7.36,7.36,0,0,0-1.12-1.43l1.54-1.57A9.3,9.3,0,0,1,425.37,38Zm-11-1.36-1.57-1.55a9.53,9.53,0,0,1,1.88-1.47l1.12,1.91a7,7,0,0,0-1.43,1.11M419.22,36a7.38,7.38,0,0,0-1.76-.22l-.06-2.2h.06a9,9,0,0,1,2.31.29Z"/><g class="cls-11"><rect class="cls-12" x="265.29" y="115.66" width="91.61" height="58.33"/></g><rect class="cls-4" x="269.85" y="120.72" width="82.51" height="49.17"/><polygon class="cls-6" points="274.12 125.24 352.37 125.24 352.37 120.83 269.71 120.83 269.71 170.43 274.12 170.43 274.12 125.24"/><path class="cls-3" d="M352.35,171h-82.5a1.11,1.11,0,0,1-1.11-1.11V120.72a1.11,1.11,0,0,1,1.11-1.1h82.5a1.11,1.11,0,0,1,1.11,1.1v49.17a1.11,1.11,0,0,1-1.11,1.11M271,168.79h80.3v-47H271Z"/><path class="cls-4" d="M312.45,117.71a1.35,1.35,0,1,1-1.35-1.38,1.36,1.36,0,0,1,1.35,1.38"/><path class="cls-4" d="M260.63,174v2.51a2.47,2.47,0,0,0,2.44,2.5h96.06a2.47,2.47,0,0,0,2.44-2.5V174Z"/><path class="cls-3" d="M359.13,180.1H263.07a3.58,3.58,0,0,1-3.55-3.6V174a1.11,1.11,0,0,1,1.11-1.1H361.57a1.11,1.11,0,0,1,1.11,1.1v2.51a3.58,3.58,0,0,1-3.55,3.6m-97.4-5v1.41a1.37,1.37,0,0,0,1.34,1.4h96.06a1.37,1.37,0,0,0,1.34-1.4v-1.41Z"/><path class="cls-13" d="M355.13,122.86a28.28,28.28,0,0,1,25.33,15.7,21.51,21.51,0,0,1,29.13,11,17.15,17.15,0,1,1,11.48,29.89H355.13a28.28,28.28,0,0,1,0-56.55"/><path class="cls-14" d="M373.63,144.35a16.2,16.2,0,0,1,6.66-6.1,28.27,28.27,0,0,0-25.16-15.39c-.7,0-1.4,0-2.09.09,11.46.71,19.84,10.16,20.59,21.4"/><path class="cls-15" d="M421.07,145.11a17.25,17.25,0,0,0-3.39.34c.28,0,.57,0,.86,0,14.48,0,14.46,22.46,0,22.46-11.07,0-13.65-13.13-7.79-19.31-.4.3-.79.62-1.16,1a21.5,21.5,0,0,0-23.12-12.83l.48,0a15.56,15.56,0,1,1-15.38,17.75,23,23,0,0,1-19.89,12.46c-12.34,0-21.47-10.08-22-22a19.38,19.38,0,0,1,2.42-10.13,28.28,28.28,0,0,0,23,44.67h65.94a17.16,17.16,0,0,0,0-34.31"/><path class="cls-4" d="M476.81,179.4H413.67a7.25,7.25,0,0,1,0-14.5h63.14a7.25,7.25,0,0,1,0,14.5"/><path class="cls-4" d="M454.77,158.38h-34a3.16,3.16,0,0,1,0-6.31h34a3.16,3.16,0,1,1,0,6.31"/><path class="cls-4" d="M497.91,161.73h-10a3.3,3.3,0,0,1,0-6.6h10a3.3,3.3,0,0,1,0,6.6"/><path class="cls-4" d="M447.12,164.9H434.54a3.36,3.36,0,0,0,2.38-1,3,3,0,0,0,1-2.26,3.27,3.27,0,0,0-3.37-3.25h12.58a3.26,3.26,0,1,0,0,6.52"/><path class="cls-3" d="M476.81,180.15H355.13a29.19,29.19,0,1,1,25.83-43,22.26,22.26,0,0,1,8.84-1.77A22.59,22.59,0,0,1,410,147.89a18.27,18.27,0,0,1,11.08-3.62,17.7,17.7,0,0,1,10.38,3.35l-1.29,1.79a15.48,15.48,0,0,0-9.09-2.94,16,16,0,0,0-10.74,4,1.13,1.13,0,0,1-1,.25,1.08,1.08,0,0,1-.78-.64,20.39,20.39,0,0,0-18.77-12.49,20.18,20.18,0,0,0-8.86,2,1.11,1.11,0,0,1-1.47-.5A27.1,27.1,0,1,0,355.13,178H476.81a6.07,6.07,0,1,0,0-12.13h-7.56v-2.2h7.56a8.27,8.27,0,1,1,0,16.53"/><path class="cls-3" d="M443.55,163.22a1.74,1.74,0,0,0-.14-.27,2.88,2.88,0,0,1-.49-1.47,4.45,4.45,0,0,1,1.17-3.21,4.13,4.13,0,0,1,3-1.27h7.65a2.29,2.29,0,0,0,2.34-1.74c-.11-1-1.24-1.56-2.34-1.56H441.69v-2.21h13.08c2,0,4.09,1.19,4.49,3.21a1.23,1.23,0,0,1,.06.39v.33a1.21,1.21,0,0,1-.06.38,4.56,4.56,0,0,1-4.49,3.41h-7.65a2,2,0,0,0-1.47.62,2.38,2.38,0,0,0-.52,1.65,2.18,2.18,0,0,0,.19.37,3.72,3.72,0,0,1,.25.48Z"/><path class="cls-3" d="M497.54,162.84h-9.73a4.41,4.41,0,0,1,0-8.82h9.73c2.26,0,4.78,1.92,4.78,4.48s-2.52,4.34-4.78,4.34m-9.73-6.61a2.21,2.21,0,0,0,0,4.41h9.73c1.19,0,2.57-.9,2.57-2.07a2.65,2.65,0,0,0-2.57-2.34Z"/><rect class="cls-3" x="452.71" y="163.62" width="9.92" height="2.21"/><path class="cls-3" d="M374.44,146.2l-1.88-1.14a24.25,24.25,0,0,1,7.34-7.42l1.12,1.9a22.51,22.51,0,0,0-6.58,6.66"/><path class="cls-4" d="M308,53.38V86.91a5,5,0,0,0,5,5h58.68a5,5,0,0,0,5-5V53.38a5,5,0,0,0-5-5H313a5,5,0,0,0-5,5"/><path class="cls-3" d="M371.67,93H313a6.09,6.09,0,0,1-6.09-6.09V53.38A6.09,6.09,0,0,1,313,47.29h58.68a6.09,6.09,0,0,1,6.09,6.09V86.91A6.09,6.09,0,0,1,371.67,93M313,49.49a3.89,3.89,0,0,0-3.89,3.89V86.91A3.89,3.89,0,0,0,313,90.8h58.68a3.9,3.9,0,0,0,3.89-3.89V53.38a3.9,3.9,0,0,0-3.89-3.89Z"/><g class="cls-16"><rect class="cls-17" x="312.77" y="51.97" width="57.55" height="36.85"/></g><path class="cls-7" d="M374.18,70.4a1.28,1.28,0,1,1-1.28-1.28,1.27,1.27,0,0,1,1.28,1.28"/><path class="cls-3" d="M338.25,82.62,338,80.43a9.05,9.05,0,0,0,1.86-.39l.68,2.09a10.68,10.68,0,0,1-2.31.49m-4.68-.48a11.1,11.1,0,0,1-2.17-1l1.1-1.91a8.7,8.7,0,0,0,1.74.77Zm11.07-2.37-1.48-1.64a9,9,0,0,0,1.28-1.41L346.22,78a11,11,0,0,1-1.58,1.76M327.9,78a11.06,11.06,0,0,1-1.19-2l2-.9a8.77,8.77,0,0,0,1,1.65Zm20.24-4.32L346,73.25a9.19,9.19,0,0,0,.2-1.89l2.2,0v0a11.57,11.57,0,0,1-.24,2.35m-22.42-2.33v0A12,12,0,0,1,326,69l2.16.45a9,9,0,0,0-.19,1.88Zm19.66-3.77a8.69,8.69,0,0,0-1-1.64l1.78-1.31a12.3,12.3,0,0,1,1.19,2ZM329.66,66l-1.79-1.29A11.49,11.49,0,0,1,329.45,63l1.48,1.63A9.48,9.48,0,0,0,329.66,66m11.93-2.57a8.7,8.7,0,0,0-1.74-.77l.67-2.1a11.61,11.61,0,0,1,2.17,1Zm-7.38-.76-.69-2.09a11.42,11.42,0,0,1,2.32-.5l.23,2.19a9.78,9.78,0,0,0-1.86.4"/><path class="cls-3" d="M297.47,159.78l-.23-2.19a9.07,9.07,0,0,0,1.86-.4l.68,2.1a11.45,11.45,0,0,1-2.31.49m-4.69-.49a10.7,10.7,0,0,1-2.16-1l1.1-1.91a9.35,9.35,0,0,0,1.74.78Zm11.08-2.36-1.48-1.64a9.61,9.61,0,0,0,1.28-1.42l1.78,1.3a11.49,11.49,0,0,1-1.58,1.76m-16.74-1.74a11.06,11.06,0,0,1-1.19-2.05l2-.9a9.1,9.1,0,0,0,1,1.65Zm20.24-4.32-2.16-.46a9.29,9.29,0,0,0,.2-1.9l2.2,0v0a11.67,11.67,0,0,1-.24,2.36m-22.42-2.34v0a11.37,11.37,0,0,1,.24-2.33l2.16.45a9.16,9.16,0,0,0-.19,1.88Zm19.66-3.76a9.72,9.72,0,0,0-1-1.65l1.78-1.3a12.21,12.21,0,0,1,1.19,2Zm-15.72-1.6-1.79-1.3a11.49,11.49,0,0,1,1.58-1.76l1.48,1.64a8.59,8.59,0,0,0-1.27,1.42m11.93-2.58a9.31,9.31,0,0,0-1.74-.77l.67-2.1a11.66,11.66,0,0,1,2.17,1Zm-7.38-.75-.69-2.1a11.4,11.4,0,0,1,2.32-.49l.23,2.19a9.07,9.07,0,0,0-1.86.4"/><g class="cls-18"><g class="cls-19"><path class="cls-7" d="M354.77,152.47a4.2,4.2,0,1,1,4.2-4.2,4.2,4.2,0,0,1-4.2,4.2"/></g></g><g class="cls-18"><g class="cls-20"><path class="cls-7" d="M354.77,149.62a2.78,2.78,0,1,1,2.77-2.78,2.77,2.77,0,0,1-2.77,2.78"/></g></g><path class="cls-3" d="M354.77,153.57a5.31,5.31,0,1,1,5.3-5.3,5.31,5.31,0,0,1-5.3,5.3m0-8.4a3.1,3.1,0,1,0,3.09,3.1,3.1,3.1,0,0,0-3.09-3.1"/><g class="cls-18"><g class="cls-21"><path class="cls-7" d="M296.75,152.47a4.2,4.2,0,1,1,4.2-4.2,4.2,4.2,0,0,1-4.2,4.2"/></g></g><g class="cls-18"><g class="cls-22"><path class="cls-7" d="M296.75,149.62a2.78,2.78,0,1,1,2.77-2.78,2.78,2.78,0,0,1-2.77,2.78"/></g></g><path class="cls-3" d="M296.75,153.57a5.31,5.31,0,1,1,5.3-5.3,5.31,5.31,0,0,1-5.3,5.3m0-8.4a3.1,3.1,0,1,0,3.1,3.1,3.1,3.1,0,0,0-3.1-3.1"/><g class="cls-18"><g class="cls-23"><path class="cls-7" d="M337.58,75.78a4.2,4.2,0,1,1,4.2-4.2,4.2,4.2,0,0,1-4.2,4.2"/></g></g><g class="cls-18"><g class="cls-24"><path class="cls-7" d="M337.58,72.93a2.78,2.78,0,1,1,2.78-2.77,2.77,2.77,0,0,1-2.78,2.77"/></g></g><path class="cls-3" d="M337.58,76.89a5.31,5.31,0,1,1,5.31-5.31,5.31,5.31,0,0,1-5.31,5.31m0-8.41a3.1,3.1,0,1,0,3.1,3.1,3.11,3.11,0,0,0-3.1-3.1"/><path class="cls-3" d="M343.91,165.52H308.24a12.6,12.6,0,0,1-12.59-12.59v-5.7h2.2v5.7a10.4,10.4,0,0,0,10.39,10.38h35.67a9.76,9.76,0,0,0,9.75-9.75v-6.33h2.21v6.33a12,12,0,0,1-12,12"/><path class="cls-3" d="M354.77,149.37h-6.33a12,12,0,0,1-12-12V71.58h2.21v65.83a9.76,9.76,0,0,0,9.75,9.76h6.33Z"/><g class="cls-18"><g class="cls-25"><path class="cls-7" d="M400.28,162.63a4.2,4.2,0,1,0-4.2-4.2,4.2,4.2,0,0,0,4.2,4.2"/></g></g><g class="cls-18"><g class="cls-26"><path class="cls-7" d="M406.89,159.78a2.78,2.78,0,1,0-2.77-2.77,2.77,2.77,0,0,0,2.77,2.77"/></g></g><path class="cls-3" d="M400.28,163.73a5.3,5.3,0,1,1,5.31-5.3,5.31,5.31,0,0,1-5.31,5.3m0-8.4a3.1,3.1,0,1,0,3.1,3.1,3.1,3.1,0,0,0-3.1-3.1"/><g class="cls-18"><g class="cls-27"><path class="cls-7" d="M458.3,127.36a4.2,4.2,0,1,0-4.2-4.2,4.2,4.2,0,0,0,4.2,4.2"/></g></g><g class="cls-18"><g class="cls-28"><path class="cls-7" d="M458.3,124.51a2.78,2.78,0,1,0-2.78-2.77,2.77,2.77,0,0,0,2.78,2.77"/></g></g><path class="cls-3" d="M458.3,128.46a5.3,5.3,0,1,1,5.3-5.3,5.3,5.3,0,0,1-5.3,5.3m0-8.4a3.1,3.1,0,1,0,3.1,3.1,3.1,3.1,0,0,0-3.1-3.1"/><g class="cls-18"><g class="cls-29"><path class="cls-30" d="M417.46,46.8a4.2,4.2,0,1,0-4.2-4.2,4.2,4.2,0,0,0,4.2,4.2"/></g></g><g class="cls-18"><g class="cls-31"><path class="cls-30" d="M417.46,44a2.78,2.78,0,1,0-2.77-2.77A2.77,2.77,0,0,0,417.46,44"/></g></g><path class="cls-3" d="M417.46,47.9a5.3,5.3,0,1,1,5.31-5.3,5.3,5.3,0,0,1-5.31,5.3m0-8.4a3.1,3.1,0,1,0,3.1,3.1,3.1,3.1,0,0,0-3.1-3.1"/><path class="cls-3" d="M446.81,175.68H411.14a12,12,0,0,1-12-12V157.4h2.2v6.32a9.77,9.77,0,0,0,9.76,9.76h35.67a10.4,10.4,0,0,0,10.39-10.39V122.28h2.2v40.81a12.61,12.61,0,0,1-12.59,12.59"/><path class="cls-3" d="M406.61,159.53h-6.33v-2.2h6.33a9.76,9.76,0,0,0,9.75-9.75V42.6h2.21v105a12,12,0,0,1-12,11.95"/><g class="cls-32"><rect class="cls-33" x="84.11" y="61.88" width="128.6" height="111.1" transform="translate(-0.2 234.61) rotate(-76.61)"/></g><g class="cls-34"><rect class="cls-35" x="8.51" y="73.27" width="92.06" height="90.21" transform="translate(-73.24 144.01) rotate(-76.61)"/></g><path class="cls-36" d="M196,150.05v20.64h-82.7V154.28l42.21-39.87c9.69-9.22,11.41-14.85,11.41-20.17,0-8.6-5.94-13.6-17.51-13.6-9.38,0-17.35,3.6-22.67,10.94L108.31,79.7c8.44-12.35,23.77-20.32,43.46-20.32,24.39,0,40.65,12.51,40.65,32.36,0,10.63-3,20.32-18.29,34.55L149,150.05Z"/><polygon class="cls-36" points="90.26 104.91 90.26 125.23 15.84 153.53 15.84 133.99 67.9 115.07 15.84 96 15.84 76.61 90.26 104.91"/></g></g></g></svg>