<svg xmlns="http://www.w3.org/2000/svg" xmlns:xlink="http://www.w3.org/1999/xlink" viewBox="0 0 524.48 159.68"><defs><style>.cls-1,.cls-26{fill:none;}.cls-2{clip-path:url(#clip-path);}.cls-3{fill:url(#linear-gradient);}.cls-4{clip-path:url(#clip-path-2);}.cls-5{fill:url(#linear-gradient-2);}.cls-6{clip-path:url(#clip-path-3);}.cls-7{fill:url(#linear-gradient-3);}.cls-8{clip-path:url(#clip-path-4);}.cls-9{fill:url(#linear-gradient-4);}.cls-10{clip-path:url(#clip-path-5);}.cls-11{fill:url(#linear-gradient-5);}.cls-12{clip-path:url(#clip-path-6);}.cls-13{fill:url(#linear-gradient-6);}.cls-14,.cls-17{fill:#fff;}.cls-15{fill:#101417;}.cls-16{fill:#e9e9e9;}.cls-17,.cls-18,.cls-21{fill-rule:evenodd;}.cls-18{fill:#eceeed;}.cls-19{clip-path:url(#clip-path-7);}.cls-20,.cls-21{fill:#003bbf;}.cls-22{clip-path:url(#clip-path-8);}.cls-23{fill:url(#linear-gradient-7);}.cls-24{clip-path:url(#clip-path-9);}.cls-25{fill:url(#linear-gradient-8);}.cls-26{stroke:#000;stroke-miterlimit:10;stroke-width:2px;}</style><clipPath id="clip-path"><path class="cls-1" d="M310.44,41.88a7,7,0,0,0-6.87,7V118.7H424.21V48.91a7,7,0,0,0-6.86-7Z"/></clipPath><linearGradient id="linear-gradient" x1="-2002.37" y1="4949.73" x2="-2001.37" y2="4949.73" gradientTransform="matrix(114.45, 0, 0, -114.45, 229511.37, 566580.42)" gradientUnits="userSpaceOnUse"><stop offset="0" stop-color="#ff9201"/><stop offset="0.16" stop-color="#ff9b01"/><stop offset="0.43" stop-color="#feb501"/><stop offset="0.76" stop-color="#fcde00"/><stop offset="1" stop-color="#fbff00"/></linearGradient><clipPath id="clip-path-2"><path class="cls-1" d="M412.32,83.23a6.1,6.1,0,1,0,0,12.2H445a6.1,6.1,0,0,0,0-12.2Z"/></clipPath><linearGradient id="linear-gradient-2" x1="-2002.37" y1="4949.72" x2="-2001.37" y2="4949.72" gradientTransform="matrix(114.45, 0, 0, -114.45, 229519.7, 566588.21)" xlink:href="#linear-gradient"/><clipPath id="clip-path-3"><path class="cls-1" d="M415.33,58.72a6.1,6.1,0,1,0,0,12.2H433.1a6.1,6.1,0,0,0,0-12.2Z"/></clipPath><linearGradient id="linear-gradient-3" x1="-2002.37" y1="4949.72" x2="-2001.37" y2="4949.72" gradientTransform="matrix(114.45, 0, 0, -114.45, 229509.15, 566564.22)" xlink:href="#linear-gradient"/><clipPath id="clip-path-4"><path class="cls-1" d="M404.45,107.28a4,4,0,0,0-3.95,4h0a4,4,0,0,0,3.95,4h48.41a4,4,0,1,0,0-7.91Z"/></clipPath><linearGradient id="linear-gradient-4" x1="-2002.37" y1="4949.72" x2="-2001.37" y2="4949.72" gradientTransform="matrix(114.45, 0, 0, -114.45, 229524.33, 566611.48)" xlink:href="#linear-gradient"/><clipPath id="clip-path-5"><path class="cls-1" d="M439.76,48.44a4,4,0,1,0,0,7.9h17.52a3.95,3.95,0,1,0,0-7.9Z"/></clipPath><linearGradient id="linear-gradient-5" x1="-2002.37" y1="4949.72" x2="-2001.37" y2="4949.72" gradientTransform="matrix(114.45, 0, 0, -114.45, 229511.4, 566549.73)" xlink:href="#linear-gradient"/><clipPath id="clip-path-6"><path class="cls-1" d="M418,95.34a6.07,6.07,0,0,1,4.31,10.38,5.87,5.87,0,0,1-4.31,1.56h22.77a6,6,0,0,1-6.1-5.94,5.67,5.67,0,0,1,1.79-4.15,6.1,6.1,0,0,1,4.31-1.85Z"/></clipPath><linearGradient id="linear-gradient-6" x1="-2002.37" y1="4949.72" x2="-2001.37" y2="4949.72" gradientTransform="matrix(114.45, 0, 0, -114.45, 229519.87, 566601.91)" xlink:href="#linear-gradient"/><clipPath id="clip-path-7"><path class="cls-1" d="M191.07,90.11a60.25,60.25,0,1,0,60.25-60.25,60.25,60.25,0,0,0-60.25,60.25"/></clipPath><clipPath id="clip-path-8"><path class="cls-1" d="M74.44,31.85V52.17H121L98.52,77.66V94.38h11.57c14.38,0,20.48,5.16,20.48,13.45,0,8.91-7.82,14.07-20.48,14.07-11.42,0-23-3.59-31.27-9.85L69,131.44c10.63,7.5,26.42,11.72,41.74,11.72,31.11,0,45.34-16.88,45.34-35.33,0-16.1-10-28.3-29.71-31.42l24.71-28.14V31.85Z"/></clipPath><linearGradient id="linear-gradient-7" x1="-2017.21" y1="4943.06" x2="-2016.21" y2="4943.06" gradientTransform="matrix(271.34, 0, 0, -271.34, 547399.66, 1341327.32)" xlink:href="#linear-gradient"/><clipPath id="clip-path-9"><polygon class="cls-1" points="5.67 67.5 57.73 86.57 5.67 105.48 5.67 125.03 80.08 96.73 80.08 76.41 5.67 48.11 5.67 67.5"/></clipPath><linearGradient id="linear-gradient-8" x1="-2017.21" y1="4943.05" x2="-2016.21" y2="4943.05" gradientTransform="matrix(271.34, 0, 0, -271.34, 547334.19, 1341323.88)" xlink:href="#linear-gradient"/></defs><title>p-3</title><g id="Layer_2" data-name="Layer 2"><g id="Layer_1-2" data-name="Layer 1"><g class="cls-2"><rect class="cls-3" x="293.72" y="22.52" width="140.35" height="115.54" transform="translate(-4.21 138.31) rotate(-21.4)"/></g><g class="cls-4"><rect class="cls-5" x="405.54" y="75.47" width="46.23" height="27.73" transform="translate(-3.04 162.57) rotate(-21.4)"/></g><g class="cls-6"><rect class="cls-7" x="408.04" y="53.67" width="32.35" height="22.29" transform="translate(5.6 159.25) rotate(-21.4)"/></g><g class="cls-8"><rect class="cls-9" x="401" y="97.28" width="55.32" height="27.91" transform="translate(-11.03 164.08) rotate(-21.4)"/></g><g class="cls-10"><rect class="cls-11" x="435.24" y="44.07" width="26.56" height="16.64" transform="translate(11.81 167.26) rotate(-21.4)"/></g><g class="cls-12"><rect class="cls-13" x="416.56" y="91.6" width="25.55" height="19.42" transform="translate(-7.37 163.64) rotate(-21.4)"/></g><path class="cls-14" d="M365.67,46.45a1.78,1.78,0,1,1-1.78-1.82,1.8,1.8,0,0,1,1.78,1.82"/><path class="cls-15" d="M423.19,120.23H303.88a1.54,1.54,0,0,1-1.53-1.53V48.85c0-4.81,3.2-8.16,7.79-8.16H417c4.52,0,7.68,3.35,7.68,8.16v8.66h8.07a7.65,7.65,0,0,1,0,15.3h-8.07V82h20a7.49,7.49,0,0,1,7.57,7.41v.08h0a7.72,7.72,0,0,1-7.57,7.79h-5.1a3.24,3.24,0,0,0-2.4.93,3.4,3.4,0,0,0-1.35,2.69c0,2.77,2.37,4,4.57,4h12.15c3.14,0,5.48,3.23,5.48,6.12s-2.34,6.12-5.48,6.12H424.72v1.53a1.53,1.53,0,0,1-1.53,1.53m-117.78-3.06H421.66v-1.53a1.53,1.53,0,0,1,1.53-1.53h29.37c1.18,0,2.42-1.57,2.42-3.06s-1.24-3.06-2.42-3.06H440.41c-4.42,0-7.63-3-7.63-7.09A6.35,6.35,0,0,1,435,96.06a6.28,6.28,0,0,1,4.58-1.83h5.1a4.71,4.71,0,0,0,4.51-4.74,4.46,4.46,0,0,0-4.51-4.44h-21.5a1.54,1.54,0,0,1-1.53-1.53V71.28a1.53,1.53,0,0,1,1.53-1.53h9.6a4.59,4.59,0,0,0,0-9.18h-9.6A1.53,1.53,0,0,1,421.66,59V48.85c0-3.15-1.77-5.1-4.62-5.1H310.14c-2.87,0-4.73,2-4.73,5.1Z"/><path class="cls-15" d="M457,57.51H439.45a5.41,5.41,0,0,1-5.54-5,.76.76,0,0,1,0-.15v-.14a1.64,1.64,0,0,1,0-.22,5.56,5.56,0,0,1,5.53-5.14H457a5.35,5.35,0,1,1,0,10.7m-17.52-7.65a2.51,2.51,0,0,0-2.49,2.4,2.37,2.37,0,0,0,2.49,2.19H457a2.3,2.3,0,1,0,0-4.59Z"/><rect class="cls-15" x="440.33" y="74.4" width="18.35" height="3.06"/><rect class="cls-15" x="455.62" y="97.35" width="6.12" height="3.06"/><rect class="cls-15" x="429.62" y="36.16" width="6.12" height="3.06"/><path class="cls-14" d="M297.43,120v3.3a3.26,3.26,0,0,0,3.22,3.3H427.14a3.26,3.26,0,0,0,3.22-3.3V120Z"/><rect class="cls-14" x="310.27" y="48.77" width="107.08" height="62.72"/><polygon class="cls-16" points="316 53.36 417.34 53.36 417.34 48.77 310.27 48.77 310.27 111.49 316 111.49 316 53.36"/><path class="cls-17" d="M319.38,79.2a36.57,36.57,0,0,1,32.76,20.29,27.8,27.8,0,0,1,37.66,14.17,22.18,22.18,0,1,1,14.85,38.66H319.38a36.56,36.56,0,0,1,0-73.12"/><path class="cls-18" d="M343.31,107a20.88,20.88,0,0,1,8.61-7.89A36.55,36.55,0,0,0,319.38,79.2c-.91,0-1.8,0-2.7.1,14.81.92,25.66,13.15,26.63,27.68"/><path class="cls-18" d="M404.65,108a22.51,22.51,0,0,0-4.38.44c.37,0,.73-.06,1.11-.06,18.73,0,18.69,29,0,29-14.32,0-17.65-17-10.07-25-.52.39-1,.81-1.51,1.24a27.8,27.8,0,0,0-25.59-16.93,29,29,0,0,0-4.3.34c.2,0,.41,0,.62,0a20.13,20.13,0,1,1-19.9,23c-4.77,9.42-15.08,16.11-25.71,16.11-15.95,0-27.77-13-28.46-28.45a24.9,24.9,0,0,1,3.14-13.1,36.55,36.55,0,0,0,29.78,57.75h85.27a22.18,22.18,0,1,0,0-44.36"/><path class="cls-14" d="M477,151.81H397.46a9.13,9.13,0,1,1,0-18.25H477a9.13,9.13,0,1,1,0,18.25"/><path class="cls-14" d="M448.8,125H411a3.51,3.51,0,0,1,0-7H448.8a3.51,3.51,0,0,1,0,7"/><path class="cls-14" d="M486.29,129.39H473.35a4.27,4.27,0,0,1,0-8.53h12.94a4.27,4.27,0,1,1,0,8.53"/><path class="cls-14" d="M438.33,133.56H422.07a4.37,4.37,0,0,0,3.08-1.31,4,4,0,0,0,1.28-2.93,4.23,4.23,0,0,0-4.36-4.2h16.26a4.08,4.08,0,0,0-4.35,4.14,4.31,4.31,0,0,0,4.35,4.3"/><path class="cls-15" d="M476.73,153.82H319.38A37.83,37.83,0,1,1,352.8,98a29.34,29.34,0,0,1,37.46,13.86,23.27,23.27,0,0,1,14.19-4.61,22.4,22.4,0,0,1,13.29,4.39L416,114.15a19.37,19.37,0,0,0-11.5-3.81,20.11,20.11,0,0,0-13.72,5.12,1.52,1.52,0,0,1-2.43-.54,26.29,26.29,0,0,0-35.52-13.53,1.54,1.54,0,0,1-2-.69,34.93,34.93,0,1,0-31.36,50.06H476.73a7.65,7.65,0,1,0,0-15.29H466.15v-3.06h10.58a10.71,10.71,0,1,1,0,21.41"/><path class="cls-15" d="M433.46,132.15l-.13-.28a5,5,0,0,1-.61-2.13,6.64,6.64,0,0,1,1.59-4.53,5.81,5.81,0,0,1,4-2h9.9c.59,0,2.45-.12,2.61-1.66-.1-.93-1-1.4-2.61-1.4H431v-3.06h17.26c3.12,0,5.18,1.41,5.61,3.74a1.62,1.62,0,0,1,.08.49v.43a1.35,1.35,0,0,1-.09.5c-.44,2.41-2.62,4-5.6,4h-9.9a2.84,2.84,0,0,0-1.87,1.09,3.81,3.81,0,0,0-.68,2.36,3.45,3.45,0,0,0,.32.84l.16.36Z"/><path class="cls-15" d="M486.29,130.88H473.35c-3.36,0-5.79-2.25-5.79-5.36s2.43-5.35,5.79-5.35h12.94c3.46,0,5.87,2.12,5.87,5.16a5.56,5.56,0,0,1-5.87,5.55m-12.94-7.65c-1.36,0-2.73.71-2.73,2.29s1.37,2.3,2.73,2.3h12.94a2.55,2.55,0,0,0,2.81-2.39c0-2.1-2.34-2.2-2.81-2.2Z"/><rect class="cls-15" x="444.74" y="132.41" width="13.77" height="3.06"/><path class="cls-17" d="M311.57,90.11a60.25,60.25,0,1,1-60.25-60.25,60.26,60.26,0,0,1,60.25,60.25"/><g class="cls-19"><path class="cls-20" d="M225.36,106.39a5.82,5.82,0,0,1-4.24-2.86l-5.63-9.85a5.76,5.76,0,0,1,5-8.63,5.8,5.8,0,0,1,5,2.91l1.64,2.87,2.59-1.92,13.43-13.43a5.76,5.76,0,1,1,8.15,8.15l-21.11,21.11a5.82,5.82,0,0,1-4.08,1.7,6.78,6.78,0,0,1-.77,0"/><rect class="cls-15" x="270.18" y="69.5" width="42.99" height="4.3"/><rect class="cls-15" x="270.18" y="80.24" width="19.34" height="4.3"/><rect class="cls-15" x="270.18" y="90.99" width="34.39" height="4.3"/><rect class="cls-15" x="270.18" y="101.74" width="19.34" height="4.3"/></g><path class="cls-15" d="M254.91,159.48l-.22-4.29c1.36-.08,2.74-.19,4.12-.35l.49,4.27c-1.46.17-2.93.29-4.39.37m-8.81-.1c-1.47-.11-2.93-.27-4.38-.47l.6-4.26c1.36.19,2.73.34,4.11.44ZM268,157.54l-1-4.18.94-.24c1-.27,2-.56,3-.88l1.28,4.1c-1.06.34-2.13.65-3.22.93Zm-34.87-.41c-1.42-.39-2.83-.82-4.21-1.3l1.39-4.06c1.3.45,2.62.85,3.95,1.21Zm47.33-3.95-1.79-3.91c1.25-.57,2.48-1.19,3.69-1.84l2,3.78c-1.29.7-2.61,1.36-3.94,2m-59.68-.72c-1.31-.64-2.61-1.33-3.88-2.06l2.13-3.73c1.19.68,2.41,1.33,3.65,1.94Zm71.09-5.92-2.51-3.49c1.12-.81,2.21-1.65,3.28-2.51l2.72,3.32c-1.13.93-2.3,1.82-3.49,2.68m-82.33-1c-1.17-.88-2.31-1.81-3.43-2.76l2.8-3.27c1,.9,2.12,1.77,3.22,2.59Zm92.26-7.7-3.12-3c.94-1,1.86-2,2.74-3.09l3.3,2.75q-1.41,1.68-2.92,3.29m-102-1.2q-1.47-1.64-2.84-3.36l3.36-2.68q1.29,1.63,2.67,3.15Zm110.11-9.2-3.62-2.31c.74-1.17,1.44-2.35,2.11-3.56l3.76,2.08c-.71,1.28-1.46,2.55-2.25,3.79m-118-1.38q-1.14-1.89-2.16-3.85l3.82-2c.63,1.23,1.31,2.43,2,3.6Zm124-10.37-4-1.59c.5-1.28,1-2.58,1.4-3.89l4.09,1.33c-.46,1.4-1,2.78-1.5,4.15m-129.71-1.53c-.5-1.37-1-2.76-1.39-4.17l4.12-1.24c.4,1.34.83,2.64,1.31,3.93ZM319.57,103l-4.22-.8c.25-1.35.47-2.71.64-4.08l4.26.53c-.18,1.46-.41,2.91-.68,4.35m-136.77-1.6c-.25-1.46-.44-2.91-.59-4.37l4.28-.43c.14,1.36.32,2.73.55,4.09ZM316.48,89.9c0-1.37-.05-2.75-.15-4.13l4.29-.29c.1,1.47.15,2.94.16,4.4Zm-130.3-1.53-4.3-.12c0-1.47.12-2.94.26-4.4l4.28.39c-.13,1.37-.21,2.74-.24,4.13M315.25,77.58c-.26-1.35-.57-2.69-.92-4l4.09-1.33.07.26c.37,1.4.7,2.83,1,4.26ZM187.69,76.07l-4.2-.92c.32-1.44.68-2.87,1.09-4.28l4.13,1.2c-.38,1.32-.72,2.65-1,4m124-10.57q-.79-1.92-1.68-3.78l3.87-1.87c.64,1.32,1.23,2.66,1.79,4ZM191.5,64.29l-3.94-1.71c.58-1.34,1.21-2.67,1.87-4l3.83,1.95c-.62,1.23-1.21,2.48-1.76,3.74m114.41-9.76c-.75-1.16-1.54-2.29-2.36-3.38L307,48.57q1.31,1.77,2.52,3.61ZM197.47,53.44,193.92,51c.82-1.21,1.68-2.4,2.59-3.55l3.39,2.63c-.84,1.09-1.66,2.21-2.43,3.34M298.2,44.86c-1-1-1.95-2-3-2.88l2.89-3.17c1.09,1,2.14,2,3.16,3.06Zm-92.83-1-3-3c1-1,2.11-2,3.21-3l2.84,3.23c-1,.91-2,1.85-3,2.82m83.42-7.09c-1.13-.79-2.28-1.55-3.45-2.27l2.24-3.66c1.25.76,2.48,1.57,3.68,2.41Zm-73.87-.76-2.4-3.57q1.83-1.23,3.73-2.34l2.17,3.71c-1.19.7-2.36,1.43-3.5,2.2M278,30.69c-1.25-.57-2.53-1.09-3.82-1.58l1.51-4q2.07.78,4.08,1.68Zm-52.23-.53-1.68-4c1.35-.57,2.71-1.1,4.11-1.59l1.42,4.06c-1.3.46-2.59,1-3.85,1.49m40.51-3.46c-1.34-.32-2.69-.59-4.05-.83l.72-4.23c1.45.24,2.89.54,4.32.88Zm-28.7-.28-.91-4.2c1.44-.31,2.89-.57,4.33-.79l.64,4.25c-1.35.2-2.71.45-4.06.74M254,25c-1.37-.05-2.76-.07-4.14,0l-.09-4.29c1.48,0,2.95,0,4.41,0Z"/><path class="cls-15" d="M254.66,118.17H214a7.32,7.32,0,0,1-7.3-7.3V69a7.31,7.31,0,0,1,7.3-7.29h40.65A7.3,7.3,0,0,1,262,69v41.92a7.31,7.31,0,0,1-7.29,7.3M214,66a3,3,0,0,0-3,3v41.92a3,3,0,0,0,3,3h40.65a3,3,0,0,0,3-3V69a3,3,0,0,0-3-3Z"/><path class="cls-21" d="M259.17,111c-2.07-1.11-5,.61-4.23,3-2-1.62-5.17-.05-4.78,2.29l-9.87-10c-3-3-6.89.76-3.93,3.73l14,14c-3.26-.72-5.5,1.92-4.62,2.52,0,0,16.34,9.47,18.53,9.16,7.91,1.28,18-7.64,8-18l-8.29-8.53c-1.81-1.87-5.07-.43-4.76,1.84"/><path class="cls-15" d="M251.32,152.51a62.4,62.4,0,1,1,62.4-62.4,62.47,62.47,0,0,1-62.4,62.4m0-120.5a58.1,58.1,0,1,0,58.1,58.1A58.16,58.16,0,0,0,251.32,32"/><path class="cls-15" d="M486.23,100.61a4.38,4.38,0,1,1,4.38-4.38,4.38,4.38,0,0,1-4.38,4.38m0-6.67a2.29,2.29,0,1,0,2.29,2.29,2.3,2.3,0,0,0-2.29-2.29"/><rect class="cls-15" x="523.43" y="152.73" width="1.04" height="2.08"/><path class="cls-15" d="M519.12,154.82H517v-2.09h2.16Zm-6.48,0h-2.16v-2.09h2.16Zm-6.48,0H504v-2.09h2.16Zm-6.48,0h-2.16v-2.09h2.16Z"/><rect class="cls-15" x="492.16" y="152.73" width="1.04" height="2.08"/><rect class="cls-15" x="395.31" y="1.55" width="2.09" height="5.87" transform="translate(112.95 281.62) rotate(-45.01)"/><rect class="cls-15" x="393.42" y="3.45" width="5.87" height="2.09" transform="translate(112.86 281.52) rotate(-44.99)"/><rect class="cls-15" x="269.56" width="1.04" height="2.08"/><path class="cls-15" d="M265.24,2.08h-2.15V0h2.15Zm-6.47,0h-2.16V0h2.16Zm-6.48,0h-2.16V0h2.16Zm-6.48,0h-2.16V0h2.16Z"/><rect class="cls-15" x="238.29" width="1.04" height="2.08"/><rect class="cls-15" x="449.24" y="22.49" width="1.04" height="2.08"/><path class="cls-15" d="M444.92,24.58h-2.16V22.49h2.16Zm-6.48,0h-2.16V22.49h2.16Zm-6.48,0H429.8V22.49H432Zm-6.48,0h-2.16V22.49h2.16Z"/><rect class="cls-15" x="417.96" y="22.49" width="1.04" height="2.08"/><rect class="cls-15" x="351.45" y="21.65" width="3.37" height="9.49" transform="translate(84.77 257.43) rotate(-45)"/><rect class="cls-15" x="348.39" y="24.71" width="9.49" height="3.37" transform="translate(84.77 257.44) rotate(-45)"/><rect class="cls-15" x="509.22" y="67.02" width="3.29" height="9.26" transform="translate(98.99 382.25) rotate(-45)"/><rect class="cls-15" x="506.23" y="70.01" width="9.26" height="3.29" transform="translate(98.98 382.25) rotate(-45)"/><path class="cls-15" d="M307.67,13.09A4.38,4.38,0,1,1,312,8.71a4.39,4.39,0,0,1-4.37,4.38m0-6.67A2.29,2.29,0,1,0,310,8.71a2.3,2.3,0,0,0-2.29-2.29"/><rect class="cls-15" x="505.59" y="41.43" width="1.04" height="2.09"/><path class="cls-15" d="M501.27,43.52h-2.16V41.43h2.16Zm-6.48,0h-2.16V41.43h2.16Zm-6.48,0h-2.16V41.43h2.16Zm-6.48,0h-2.16V41.43h2.16Z"/><rect class="cls-15" x="474.31" y="41.43" width="1.04" height="2.09"/><g class="cls-22"><rect class="cls-23" x="53.79" y="39.97" width="117.44" height="95.06" transform="translate(16.93 193.24) rotate(-85.76)"/></g><g class="cls-24"><rect class="cls-25" x="1.77" y="46.62" width="82.21" height="79.89" transform="translate(-46.62 122.93) rotate(-85.76)"/></g><path class="cls-26" d="M159.81,105.43c0,18.45-14.23,35.33-45.34,35.33-15.32,0-31.11-4.22-41.74-11.72l9.85-19.39c8.28,6.26,19.85,9.85,31.26,9.85,12.67,0,20.48-5.16,20.48-14.07,0-8.28-6.09-13.44-20.48-13.44H102.27V75.26l22.52-25.48H78.2V29.45h76.6V45.87L130.1,74C149.8,77.13,159.81,89.33,159.81,105.43Z"/><polygon class="cls-26" points="78.59 73.1 78.59 93.43 4.18 121.72 4.18 102.18 56.24 83.27 4.18 64.19 4.18 44.81 78.59 73.1"/></g></g></svg>