<svg xmlns="http://www.w3.org/2000/svg" xmlns:xlink="http://www.w3.org/1999/xlink" viewBox="0 0 508.2 192.82"><defs><style>.cls-1,.cls-6{fill:none;}.cls-2{clip-path:url(#clip-path);}.cls-3{fill:url(#linear-gradient);}.cls-4{clip-path:url(#clip-path-2);}.cls-5{fill:url(#linear-gradient-2);}.cls-6{stroke:#000;stroke-miterlimit:10;stroke-width:2px;}.cls-21,.cls-7{fill:#fff;}.cls-8{fill:#ffe32d;}.cls-9{fill:#101417;}.cls-10{fill:#e8e8e8;}.cls-11{fill:#003bbf;}.cls-12{fill:#e9e9e9;}.cls-13{clip-path:url(#clip-path-3);}.cls-14{fill:url(#linear-gradient-3);}.cls-15{clip-path:url(#clip-path-4);}.cls-16{fill:url(#linear-gradient-4);}.cls-17{clip-path:url(#clip-path-5);}.cls-18{fill:url(#linear-gradient-5);}.cls-19{fill:#82b4d5;}.cls-20{fill:#5ceda8;}.cls-21{fill-rule:evenodd;}.cls-22{fill:#196dac;}.cls-23{clip-path:url(#clip-path-6);}</style><clipPath id="clip-path"><polygon class="cls-1" points="139.95 50.25 88.36 119.66 88.36 136.7 147.3 136.7 147.3 159.69 172 159.69 172 136.7 189.82 136.7 189.82 116.07 172 116.07 172 95.59 148.08 95.59 148.08 116.07 118.69 116.07 166.53 50.25 139.95 50.25"/></clipPath><linearGradient id="linear-gradient" x1="-2018.64" y1="4669.57" x2="-2017.64" y2="4669.57" gradientTransform="matrix(271.34, 0, 0, -271.34, 547753.55, 1267135.71)" gradientUnits="userSpaceOnUse"><stop offset="0" stop-color="#ff9201"/><stop offset="0.16" stop-color="#ff9b01"/><stop offset="0.43" stop-color="#feb501"/><stop offset="0.76" stop-color="#fcde00"/><stop offset="1" stop-color="#fbff00"/></linearGradient><clipPath id="clip-path-2"><polygon class="cls-1" points="5.67 85.89 57.73 104.97 5.67 123.88 5.67 143.43 80.08 115.13 80.08 94.81 5.67 66.51 5.67 85.89"/></clipPath><linearGradient id="linear-gradient-2" x1="-2018.64" y1="4669.56" x2="-2017.64" y2="4669.56" gradientTransform="matrix(271.34, 0, 0, -271.34, 547663.23, 1267133.48)" xlink:href="#linear-gradient"/><clipPath id="clip-path-3"><path class="cls-1" d="M441.33,57.41a1.68,1.68,0,0,0-1.66,1.72v3.13c0,2.32-1.72,3.17-3.68,3.17H425.34c-2,0-2.85-1.14-2.85-3.46V59.13a1.72,1.72,0,0,0-1.72-1.72h-8.43c-2,0-2.45.84-2.45,3.17V71.16h-7c-1.95,0-3.29,2.25-3.29,4.56v9.82c0,2.31,1.34,3.95,3.29,3.95h7V99.75c0,2.32.49,4.63,2.45,4.63h8.43a1.72,1.72,0,0,0,1.72-1.72V98.11c0-2.31.79-1.75,2.75-1.75H436c2,0,3.71-.56,3.71,1.75v4.55a1.72,1.72,0,0,0,1.72,1.72h14.49a3.27,3.27,0,0,0,3.26-3.26v-.2a3.41,3.41,0,0,0-3.41-3.41h-2.89a1.72,1.72,0,1,1,0-3.44h27.87a3.51,3.51,0,0,0,3.76-3.21,3.6,3.6,0,0,0-3.67-3.66H469.06a4.88,4.88,0,0,1-4.71-5.11,5.24,5.24,0,0,1,1.39-3.61,4.55,4.55,0,0,1,3.32-1.59h6.26a5.88,5.88,0,0,0,5.93-5.28,5.74,5.74,0,0,0-5.81-6.18H450.55a.57.57,0,1,1,0-1.14h10a3.55,3.55,0,0,0,3.61-3.37,3.45,3.45,0,0,0-3.53-3.51Z"/></clipPath><linearGradient id="linear-gradient-3" x1="-2009.04" y1="4678.14" x2="-2008.04" y2="4678.14" gradientTransform="matrix(84.9, 0, 0, -84.9, 170962.82, 397245.25)" xlink:href="#linear-gradient"/><clipPath id="clip-path-4"><path class="cls-1" d="M236.5,76.89a2.87,2.87,0,0,0,0,5.73h5.73a2.87,2.87,0,0,0,0-5.73Z"/></clipPath><linearGradient id="linear-gradient-4" x1="-1932.19" y1="4712.4" x2="-1931.19" y2="4712.4" gradientTransform="matrix(11.03, 0, 0, -11.03, 21536.83, 52035.23)" gradientUnits="userSpaceOnUse"><stop offset="0" stop-color="#fd75ba"/><stop offset="0.12" stop-color="#ea81c0"/><stop offset="0.36" stop-color="#b79fcf"/><stop offset="0.7" stop-color="#68d0e8"/><stop offset="1" stop-color="#1cfeff"/></linearGradient><clipPath id="clip-path-5"><path class="cls-1" d="M285.48,49.4c-2.23,0-3.89,1.33-3.89,3.37v6.94H268a3.11,3.11,0,0,0-3.33,3.06c0,1.27.73,2.66,1.79,2.66H243.12a4.11,4.11,0,0,0-3.91,4v.12a4,4,0,0,0,3.91,3.89h11.64a4.82,4.82,0,0,1,4.71,5,5.37,5.37,0,0,1-1.38,3.64,4.59,4.59,0,0,1-3.33,1.63h-6.38a5.73,5.73,0,1,0,0,11.46h10.08c-.5,0-.82,1.36-.82,2.22a3.5,3.5,0,0,0,3.53,3.5h20.42v5.53a3.71,3.71,0,0,0,3.89,3.64H297.6a3.65,3.65,0,0,0,3.66-3.81v-5.36H312c2.23,0,4-2.26,4-4.29V87.86h-5.29c-2.23,0-5-1.45-5-3.49V76.09c0-2,2.76-3.78,5-3.78H316V62.59c0-2-1.74-2.88-4-2.88H301.06V52.77a3.14,3.14,0,0,0-3.46-3.37Z"/></clipPath><linearGradient id="linear-gradient-5" x1="-2007.82" y1="4678.68" x2="-2006.82" y2="4678.68" gradientTransform="matrix(76.75, 0, 0, -76.75, 154334.09, 359156.12)" gradientUnits="userSpaceOnUse"><stop offset="0" stop-color="#4b84bc"/><stop offset="1" stop-color="#99efd9"/></linearGradient><clipPath id="clip-path-6"><rect class="cls-1" x="385.64" y="134.29" width="64.74" height="31.1"/></clipPath></defs><title>p-4</title><g id="Layer_2" data-name="Layer 2"><g id="Layer_1-2" data-name="Layer 1"><g class="cls-2"><rect class="cls-3" x="80.77" y="50.33" width="116.63" height="109.27" transform="translate(24.14 235.92) rotate(-85.76)"/></g><g class="cls-4"><rect class="cls-5" x="1.77" y="65.02" width="82.2" height="79.9" transform="matrix(0.07, -1, 1, 0.07, -64.97, 139.97)"/></g><polygon class="cls-6" points="193.58 134.31 175.75 134.31 175.75 157.29 151.05 157.29 151.05 134.31 92.11 134.31 92.11 117.26 143.71 47.85 170.28 47.85 122.44 113.67 151.84 113.67 151.84 93.19 175.75 93.19 175.75 113.67 193.58 113.67 193.58 134.31"/><polygon class="cls-6" points="78.59 91.5 78.59 111.83 4.18 140.12 4.18 120.58 56.24 101.66 4.18 82.59 4.18 63.2 78.59 91.5"/><path class="cls-7" d="M249.86,131.09v-9.8a9.68,9.68,0,0,1,1.2-4.71,9.38,9.38,0,0,1,16.26,0,9.78,9.78,0,0,1,1.19,4.71v9.8h5.18v-8.82a17.38,17.38,0,0,0-.12-2.4,15,15,0,0,0-.3-1.76c-.09-.39-.19-.77-.31-1.15a15.7,15.7,0,0,0-1.76-3.79,14.47,14.47,0,0,0-24,0,16,16,0,0,0-.87,1.57,16.27,16.27,0,0,0-.88,2.22c-.12.38-.22.76-.32,1.15a19,19,0,0,0-.44,4.16v8.82Z"/><path class="cls-8" d="M275.65,163.61H243.21a5.51,5.51,0,0,1-5.49-5.49V133.6a5.51,5.51,0,0,1,5.49-5.49h32.44a5.5,5.5,0,0,1,5.48,5.49v24.52a5.5,5.5,0,0,1-5.48,5.49"/><path class="cls-9" d="M274.85,164.75H244a7.43,7.43,0,0,1-7.43-7.43V134.4A7.43,7.43,0,0,1,244,127h30.84a7.43,7.43,0,0,1,7.43,7.43v22.92a7.43,7.43,0,0,1-7.43,7.43M244,129.26a5.14,5.14,0,0,0-5.14,5.14v22.92a5.14,5.14,0,0,0,5.14,5.14h30.84a5.14,5.14,0,0,0,5.14-5.14V134.4a5.14,5.14,0,0,0-5.14-5.14Z"/><path class="cls-7" d="M262.51,146.68v8.09a3,3,0,1,1-6,0v-8.09A6.68,6.68,0,0,1,259.36,134a6.79,6.79,0,0,1,6.8,6.72,7.07,7.07,0,0,1-3.65,6"/><path class="cls-10" d="M371.74,151.77V133.32H342.39v18.45c0,7.53-19.95,13.62-19.95,13.62h69.25s-19.95-6.09-19.95-13.62"/><path class="cls-9" d="M391.69,165.39H322.44a1.15,1.15,0,0,1-1.14-1,1.16,1.16,0,0,1,.8-1.27c5.33-1.62,19.15-7.05,19.15-12.53V132.18a1.15,1.15,0,0,1,1.14-1.15h29.35a1.16,1.16,0,0,1,1.15,1.15v18.44c0,4.87,11.74,10.27,19.14,12.53a1.16,1.16,0,0,1,.8,1.27,1.15,1.15,0,0,1-1.14,1M329,163.1h56.19c-6.16-2.54-14.57-7-14.57-12.48v-17.3h-27v17.3c0,5.47-8.4,9.94-14.57,12.48"/><path class="cls-11" d="M431.51,25.7H282.62a4.73,4.73,0,0,0-4.68,4.78V125H436.19V30.48a4.73,4.73,0,0,0-4.68-4.78"/><rect class="cls-7" x="285.54" y="32.73" width="143.24" height="85.15"/><polygon class="cls-12" points="292.6 39.58 428.91 39.58 428.91 32.71 285.72 32.71 285.72 117.47 292.6 117.47 292.6 39.58"/><path class="cls-9" d="M429.93,119H284.4V31.58H429.93Zm-143.24-2.29h141V33.88H286.69Z"/><path class="cls-7" d="M277.94,123.77v6.4a4.73,4.73,0,0,0,4.68,4.78H431.51a4.73,4.73,0,0,0,4.68-4.78v-6.4Z"/><path class="cls-9" d="M431.51,136.09H282.62a5.87,5.87,0,0,1-5.82-5.92V109.91h2.29v20.26a3.58,3.58,0,0,0,3.53,3.63H431.51a3.58,3.58,0,0,0,3.53-3.63V109.91h2.29v20.26a5.87,5.87,0,0,1-5.82,5.92"/><g class="cls-13"><rect class="cls-14" x="399.58" y="57.41" width="85.02" height="46.97"/></g><path class="cls-8" d="M487.93,80.32H481c-1.13,0-2,.59-2,1.72s.91,1.72,2,1.72h6.94c1.13,0,2-.59,2-1.72s-.91-1.72-2-1.72"/><path class="cls-9" d="M455.88,105.53H441.39a2.88,2.88,0,0,1-2.87-2.87V98.11a1.15,1.15,0,0,0-.09-.58,4.43,4.43,0,0,0-1.44-.06c-.33,0-.68,0-1,0H425.24c-.39,0-.73,0-1,0l-.54,0a4.22,4.22,0,0,0,0,.66v4.55a2.87,2.87,0,0,1-2.86,2.87h-8.43c-1.35,0-3.6-.76-3.6-5.78V90.63h-5.86c-2.58,0-4.45-2.14-4.45-5.09V75.72c0-2.8,1.66-5.71,4.45-5.71h5.86V60.58c0-2.24.44-4.31,3.6-4.31h8.43a2.86,2.86,0,0,1,2.86,2.86V62c0,2.14.81,2.32,1.71,2.32H436c2.53,0,2.53-1.53,2.53-2V59.13a2.81,2.81,0,0,1,2.81-2.86h6.93v2.29h-6.93a.54.54,0,0,0-.52.57v3.13c0,2.66-1.84,4.32-4.82,4.32H425.34c-1.49,0-4-.6-4-4.61V59.13a.58.58,0,0,0-.57-.57h-8.43c-1,0-1.31,0-1.31,2V72.31h-8.15c-1.15,0-2.16,1.59-2.16,3.41v9.82c0,1.39.67,2.8,2.16,2.8H411V99.75c0,1.3.17,3.48,1.31,3.48h8.43a.57.57,0,0,0,.57-.57V98.11a3.15,3.15,0,0,1,.73-2.41,2.84,2.84,0,0,1,2.28-.52c.26,0,.55,0,.89,0H436c.31,0,.62,0,.92,0,1.13-.06,2.3-.12,3.13.68a2.92,2.92,0,0,1,.8,2.24v4.55a.57.57,0,0,0,.58.57h14.49a2.12,2.12,0,0,0,2.12-2.12v-.19a2.27,2.27,0,0,0-2.27-2.27h-2.89a2.87,2.87,0,0,1,0-5.73H460v2.3h-7.16a.57.57,0,0,0-.57.57.58.58,0,0,0,.57.57h2.89a4.57,4.57,0,0,1,4.56,4.56v.19a4.42,4.42,0,0,1-4.41,4.42"/><path class="cls-9" d="M453.92,66.58h-3.37a1.72,1.72,0,0,1-.57-3.34v-.09h10.61a2.41,2.41,0,0,0,2.46-2.24,2.26,2.26,0,0,0-.64-1.63,2.41,2.41,0,0,0-1.74-.71h-4.44V56.27h4.44A4.71,4.71,0,0,1,464,57.66a4.54,4.54,0,0,1,1.3,3.28,4.69,4.69,0,0,1-4.75,4.49h-6.67Z"/><path class="cls-9" d="M480.71,95.22V92.93a2.39,2.39,0,0,0,2.62-2.14,2.17,2.17,0,0,0-.61-1.62,2.63,2.63,0,0,0-1.92-.83H469.06a6,6,0,0,1-5.85-6.25,6.43,6.43,0,0,1,1.68-4.38,5.71,5.71,0,0,1,4.17-2h6.26a4.72,4.72,0,0,0,4.79-4.22,4.53,4.53,0,0,0-1.2-3.45,4.72,4.72,0,0,0-3.47-1.49h-6.56V64.29h6.56a7,7,0,0,1,5.15,2.22,6.77,6.77,0,0,1,1.8,5.18A7,7,0,0,1,475.32,78h-6.26a3.44,3.44,0,0,0-2.47,1.22,4.12,4.12,0,0,0-1.09,2.84,3.73,3.73,0,0,0,3.56,4H480.8a5,5,0,0,1,3.59,1.55,4.44,4.44,0,0,1,1.22,3.33,4.64,4.64,0,0,1-4.9,4.29"/><path class="cls-9" d="M487.93,84.91H481a2.88,2.88,0,1,1,0-5.73h6.94a2.88,2.88,0,1,1,0,5.73M481,81.47c-.41,0-.89.1-.89.57s.48.58.89.58h6.94c.41,0,.9-.1.9-.58s-.49-.57-.9-.57Z"/><rect class="cls-9" x="470.6" y="99.8" width="6.87" height="2.29"/><rect class="cls-9" x="494.65" y="87.2" width="4.58" height="2.29"/><rect class="cls-9" x="478.62" y="59.71" width="4.58" height="2.29"/><g class="cls-15"><rect class="cls-16" x="233.85" y="76.89" width="11.02" height="5.73"/></g><g class="cls-17"><rect class="cls-18" x="239.21" y="49.4" width="76.75" height="60.71"/></g><path class="cls-9" d="M242.23,83.76H236.5a4,4,0,0,1,0-8h5.73a4,4,0,0,1,0,8M236.5,78a1.74,1.74,0,0,0,0,3.44h5.73a1.74,1.74,0,0,0,0-3.44Z"/><path class="cls-9" d="M297.6,111.25H285.48a4.86,4.86,0,0,1-5-4.78v-4.38H265.56V99.8h16a1.14,1.14,0,0,1,1.15,1.14v5.53a2.57,2.57,0,0,0,2.74,2.49H297.6a2.52,2.52,0,0,0,2.52-2.66v-5.36a1.13,1.13,0,0,1,1.14-1.14H312a3.22,3.22,0,0,0,2.82-3.15V89h-4.14c-2.92,0-6.17-1.91-6.17-4.64V76.09c0-2.73,3.36-4.93,6.15-4.93h4.16V62.59c0-1.15-.95-1.74-2.82-1.74H301.07a1.14,1.14,0,0,1-1.15-1.14V52.77a2,2,0,0,0-2.32-2.23H285.48c-1.27,0-2.74.58-2.74,2.23v6.94a1.14,1.14,0,0,1-1.15,1.14H270.14V58.56h10.31V52.77c0-2.62,2.11-4.52,5-4.52H297.6a4.28,4.28,0,0,1,4.61,4.52v5.79H312c3.15,0,5.11,1.54,5.11,4v9.72A1.14,1.14,0,0,1,316,73.45h-5.31c-1.77,0-3.86,1.43-3.86,2.64v8.28c0,1.24,2.17,2.35,3.88,2.35H316a1.14,1.14,0,0,1,.81.34,1.16,1.16,0,0,1,.33.81v8.79c0,2.57-2.18,5.44-5.11,5.44h-9.58v4.21a4.78,4.78,0,0,1-4.81,5M248.38,96.36a6.92,6.92,0,0,1-7-6.87,6.84,6.84,0,0,1,7-6.87h6.38a3.45,3.45,0,0,0,2.48-1.26,4.22,4.22,0,0,0,1.09-2.86,3.71,3.71,0,0,0-3.57-3.9h-5.24V72.31h5.24a6,6,0,0,1,5.86,6.19,6.42,6.42,0,0,1-1.68,4.39,5.73,5.73,0,0,1-4.18,2h-6.38a4.58,4.58,0,1,0,0,9.16ZM239.67,73.1a5.09,5.09,0,0,1-1.61-3.54v-.12a5.25,5.25,0,0,1,5.06-5.15H261v2.29H243.12a3,3,0,0,0-2.76,2.86v.12a2.81,2.81,0,0,0,.93,1.92Z"/><rect class="cls-9" x="254.1" y="55.12" width="9.16" height="2.29"/><rect class="cls-9" x="239.21" y="100.94" width="6.87" height="2.29"/><rect class="cls-9" x="217.44" y="86.05" width="8.02" height="2.29"/><rect class="cls-9" x="224.32" y="68.87" width="6.87" height="2.29"/><path class="cls-9" d="M401.29,110.11H399v-2.29h2.3Zm-6.88,0h-2.29v-2.29h2.29Zm-6.87,0h-2.29v-2.29h2.29Zm-6.87,0h-2.29v-2.29h2.29Zm-6.88,0H371.5v-2.29h2.29Z"/><polygon class="cls-9" points="376.48 113.19 372.24 108.96 376.48 104.73 372.88 104.73 368.65 108.96 372.88 113.19 376.48 113.19"/><path class="cls-9" d="M350.9,110.11h-2.29v-2.29h2.29Zm-6.87,0h-2.29v-2.29H344Zm-6.87,0h-2.29v-2.29h2.29Zm-6.88,0H328v-2.29h2.29Zm-6.87,0h-2.29v-2.29h2.29Z"/><polygon class="cls-9" points="345.93 104.73 350.17 108.96 345.93 113.19 349.52 113.19 353.76 108.96 349.52 104.73 345.93 104.73"/><path class="cls-19" d="M358.64,0h-.49c-17,.17-30.78,14.65-30.78,32.51a32,32,0,0,0,4.39,16.6c7.25,12,11.31,28.44,11.31,28.44h30.66s4-16.41,11.31-28.44a32.1,32.1,0,0,0,4.39-16.6C389.43,14.65,375.67.17,358.64,0"/><polygon class="cls-20" points="342.24 75.22 342.24 86.28 345.65 92.21 358.34 92.21 371.03 92.21 374.44 86.28 374.44 75.22 342.24 75.22"/><path class="cls-9" d="M371.69,93.35H345l-3.89-6.77V74.07h34.48V86.58Zm-25.38-2.29h24.06L373.29,86V76.36h-29.9V86Z"/><rect class="cls-9" x="370.17" y="77.65" width="6.3" height="2.29"/><rect class="cls-9" x="363.09" y="77.65" width="4.72" height="2.29"/><rect class="cls-9" x="340.21" y="77.65" width="18.53" height="2.29"/><rect class="cls-9" x="370.17" y="81.6" width="6.3" height="2.29"/><rect class="cls-9" x="363.09" y="81.6" width="4.72" height="2.29"/><rect class="cls-9" x="340.21" y="81.6" width="18.53" height="2.29"/><rect class="cls-9" x="370.17" y="85.55" width="6.3" height="2.29"/><rect class="cls-9" x="363.09" y="85.55" width="4.72" height="2.29"/><rect class="cls-9" x="340.21" y="85.55" width="18.53" height="2.29"/><rect class="cls-9" x="361.28" y="63.92" width="2.29" height="11.3"/><rect class="cls-9" x="353.22" y="63.92" width="2.29" height="11.3"/><path class="cls-21" d="M358.4,9.68c-2.68-2.6-10.76-.95-10.76,4.83-5.43,0-10.22,7.22-6.45,13.15-5.15,2.89-5.71,12.29.44,15.52,0,7.43,8.45,12.33,16.77,8,8.31,4.36,16.76-.54,16.76-8,6.15-3.23,5.59-12.63.45-15.52,3.76-5.93-1-13.15-6.46-13.15,0-5.78-8.08-7.43-10.75-4.83"/><path class="cls-9" d="M364.76,53.94h0a14.55,14.55,0,0,1-6.36-1.51A14.62,14.62,0,0,1,352,53.94c-6.23,0-11.16-4.38-11.52-10.08A9.77,9.77,0,0,1,336,35.51a10.25,10.25,0,0,1,3.64-8.22,9.66,9.66,0,0,1,.29-9,9.41,9.41,0,0,1,6.62-4.88c.61-3.84,4.46-6.1,8.21-6.1a6.81,6.81,0,0,1,3.61.91A6.79,6.79,0,0,1,362,7.34c3.74,0,7.6,2.26,8.2,6.1a9.43,9.43,0,0,1,6.63,4.88,9.66,9.66,0,0,1,.28,9,10.26,10.26,0,0,1,3.64,8.23,9.78,9.78,0,0,1-4.47,8.34,10.31,10.31,0,0,1-3.39,7,12,12,0,0,1-8.14,3m-6.36-4.09.53.28a12.4,12.4,0,0,0,5.83,1.52,9.71,9.71,0,0,0,6.6-2.45,8.07,8.07,0,0,0,2.65-6v-.69l.62-.32a7.46,7.46,0,0,0,3.84-6.69A7.62,7.62,0,0,0,375,28.65L374,28.06l.65-1a7.3,7.3,0,0,0,.19-7.62,6.83,6.83,0,0,0-5.68-3.77H368V14.51c0-3.56-3.67-4.88-6-4.88a4.1,4.1,0,0,0-2.81.87l-.8.79-.8-.79a4.14,4.14,0,0,0-2.81-.87c-2.32,0-6,1.32-6,4.88v1.14h-1.15A6.82,6.82,0,0,0,342,19.43a7.28,7.28,0,0,0,.19,7.61l.65,1-1.05.59a7.64,7.64,0,0,0-3.43,6.83,7.48,7.48,0,0,0,3.84,6.69l.62.32v.69c0,4.75,4.06,8.47,9.25,8.47a12.4,12.4,0,0,0,5.83-1.52Z"/><path class="cls-22" d="M367.5,29.56A.65.65,0,0,0,367,29l-1-.17a.87.87,0,0,1-.6-.52l-.39-1a.83.83,0,0,1,.07-.78l.58-.81a.66.66,0,0,0,0-.74l-.53-.62a.62.62,0,0,0-.72-.13l-.9.43a.81.81,0,0,1-.77-.07s-.16-.12-.44-.3-.46-.26-.46-.26a.82.82,0,0,1-.41-.66v-1a.68.68,0,0,0-.45-.59l-.79-.19a.65.65,0,0,0-.66.32l-.15.28-.19.35-.12.25a.91.91,0,0,1-.68.41l-.39,0h-.17l-.49,0a.81.81,0,0,1-.72-.31l-.59-.8a.67.67,0,0,0-.7-.22l-.76.31a.65.65,0,0,0-.35.65l.14,1a.88.88,0,0,1-.31.73l-.81.68a.83.83,0,0,1-.76.17l-1-.3a.66.66,0,0,0-.7.23,4,4,0,0,0-.23.34l-.21.36a.68.68,0,0,0,.11.73l.69.72a.84.84,0,0,1,.18.76l-.25,1a.88.88,0,0,1-.52.59l-.94.31a.65.65,0,0,0-.42.6l.05.82a.66.66,0,0,0,.51.53l1,.17a.87.87,0,0,1,.6.52l.39,1a.82.82,0,0,1-.06.79l-.59.81a.65.65,0,0,0,0,.73l.52.63a.67.67,0,0,0,.73.13l.89-.44a.83.83,0,0,1,.78.07s.15.12.43.3l.46.27a.77.77,0,0,1,.41.65v1a.66.66,0,0,0,.44.59l.79.19a.67.67,0,0,0,.67-.31l.46-.88a.85.85,0,0,1,.67-.41l1.05-.08a.88.88,0,0,1,.73.31l.58.8a.65.65,0,0,0,.71.22l.76-.31a.66.66,0,0,0,.35-.64l-.14-1a.82.82,0,0,1,.3-.72l.81-.68a.82.82,0,0,1,.76-.18l.95.3a.69.69,0,0,0,.71-.23,3.93,3.93,0,0,0,.22-.34,3.39,3.39,0,0,0,.21-.36.66.66,0,0,0-.11-.73l-.69-.71a.87.87,0,0,1-.18-.77l.25-1a.89.89,0,0,1,.52-.6l.95-.31a.66.66,0,0,0,.42-.6Zm-4.7,3.81a5.18,5.18,0,1,1-5-7.88,4.53,4.53,0,0,1,.52,0,2.57,2.57,0,0,1,.48,0,3.05,3.05,0,0,1,.52.05,5.18,5.18,0,0,1,3.51,7.84"/><path class="cls-22" d="M360.34,27.51a3.25,3.25,0,0,0-1.09-.46,3.4,3.4,0,0,0-1.52,0,3.7,3.7,0,1,0,2.61.5m-.81,3.82a1.33,1.33,0,1,1-2.26-1.4,1.3,1.3,0,0,1,.4-.41,1.34,1.34,0,0,1,1.43,0,.24.24,0,0,1,.08.06,1.31,1.31,0,0,1,.35,1.76"/><path class="cls-9" d="M349.57,21a3,3,0,0,1-3.07-2.87V14.67h2.29v3.46a.69.69,0,0,0,.75.57c.44,0,.78-.26.78-.57V16.64h2.29v1.49a3,3,0,0,1-3,2.87"/><path class="cls-9" d="M344.72,31.37a3.13,3.13,0,0,1-2.1-.8l-2.69-2.45,1.54-1.7,2.69,2.45a.88.88,0,0,0,1.14,0,.55.55,0,0,0,.21-.39.51.51,0,0,0-.18-.37l-1.16-1.06,1.54-1.69,1.16,1.05a2.76,2.76,0,0,1,0,4.13,3.16,3.16,0,0,1-2.15.83"/><path class="cls-9" d="M342.64,44.09,341.1,42.4,343.79,40a.5.5,0,0,0,.18-.37.47.47,0,0,0-.18-.37.89.89,0,0,0-1.16,0l-1.16,1.06-1.54-1.7,1.16-1a3.15,3.15,0,0,1,4.22,0,2.77,2.77,0,0,1,0,4.16Z"/><path class="cls-9" d="M367.21,21a3,3,0,0,1-3.08-2.87V16.64h2.29v1.49a.69.69,0,0,0,.75.57c.44,0,.78-.26.78-.57V14.67h2.29v3.46a3,3,0,0,1-3,2.87"/><path class="cls-9" d="M372,31.37a3.16,3.16,0,0,1-2.11-.8,2.76,2.76,0,0,1,0-4.16L371,25.36l1.54,1.69-1.16,1.06a.51.51,0,0,0-.18.37.54.54,0,0,0,.18.37.9.9,0,0,0,1.17,0l2.69-2.45,1.54,1.7-2.69,2.45a3.16,3.16,0,0,1-2.11.8"/><path class="cls-9" d="M374.1,44.09l-2.69-2.45a2.74,2.74,0,0,1-.93-2.06,2.78,2.78,0,0,1,.93-2.07,3.16,3.16,0,0,1,4.24,0l1.16,1-1.54,1.7-1.16-1.06a.9.9,0,0,0-1.14,0,.53.53,0,0,0-.2.4A.5.5,0,0,0,373,40l2.69,2.45Z"/><rect class="cls-9" x="357.25" y="44.49" width="2.29" height="6.64"/><g class="cls-23"><path class="cls-7" d="M419.68,139.31a26.1,26.1,0,1,0,26.1,26.09,26.12,26.12,0,0,0-26.1-26.09"/><rect class="cls-9" x="418.73" y="144.92" width="2" height="7.82"/><rect class="cls-9" x="405.04" y="149.93" width="2.01" height="3.51" transform="translate(11.68 331.56) rotate(-45)"/><rect class="cls-9" x="398.76" y="163.81" width="10.2" height="2"/><rect class="cls-20" x="404.29" y="178.02" width="3.51" height="2.01" transform="translate(-7.62 339.66) rotate(-45.01)"/><rect class="cls-20" x="418.73" y="177.87" width="2" height="9"/><rect class="cls-20" x="432.38" y="177.26" width="2.01" height="3.51" transform="translate(0.29 358.73) rotate(-44.98)"/><rect class="cls-9" x="431.43" y="163.81" width="9.28" height="2"/><rect class="cls-9" x="431.62" y="150.69" width="3.51" height="2.01" transform="translate(19.68 350.89) rotate(-45)"/><polygon class="cls-22" points="418.56 165 432.7 148.87 419.7 165.94 418.56 165"/><path class="cls-22" d="M421,162.73a2.65,2.65,0,0,1,.31,4l-.11.1a2.63,2.63,0,0,1-4-.31c-2.44-2.9-6.73-9.08-8.7-11.78a.53.53,0,0,1,.74-.74c3.14,2.32,8.88,6.26,11.79,8.7"/><path class="cls-20" d="M421,164.92a1.68,1.68,0,1,1-1.68-1.69,1.68,1.68,0,0,1,1.68,1.69"/><path class="cls-20" d="M418.47,164.9a.82.82,0,0,1,.82-.81.81.81,0,1,1,0,1.62.82.82,0,0,1-.82-.81"/><path class="cls-9" d="M419.68,192.82a27.42,27.42,0,1,1,27.41-27.42,27.45,27.45,0,0,1-27.41,27.42m0-52.2a24.78,24.78,0,1,0,24.78,24.78,24.81,24.81,0,0,0-24.78-24.78"/></g><path class="cls-8" d="M334,139a16.25,16.25,0,0,0-7.88-9.68c-.4-.2-.8-.4-1.21-.58a16.26,16.26,0,0,0-11.19-.64,16.25,16.25,0,0,0-10.89,20.23l.12.38a16.29,16.29,0,0,0,7.78,9.3c.39.2.78.4,1.18.57a16.34,16.34,0,0,0,20.84-7.22A16.18,16.18,0,0,0,334,139"/><path class="cls-9" d="M318.36,161.24a17.42,17.42,0,0,1-7-1.45c-.44-.19-.87-.4-1.3-.63a17.58,17.58,0,0,1-5.45-4.54,17.39,17.39,0,0,1-2.29-3.79,17,17,0,0,1-.81-2.16,17.79,17.79,0,0,1-.5-2.16,17.61,17.61,0,0,1,12.31-19.78,17.7,17.7,0,0,1,12.13.71,14.21,14.21,0,0,1,1.3.64,17.62,17.62,0,0,1-8.41,33.16m.09-33a15.33,15.33,0,0,0-15.16,17.86,13.84,13.84,0,0,0,.44,1.88,14.3,14.3,0,0,0,.7,1.89,14.87,14.87,0,0,0,2,3.29,15.12,15.12,0,0,0,4.75,3.95c.37.2.74.38,1.12.55a15,15,0,0,0,6.07,1.26,15.35,15.35,0,0,0,7.33-28.86c-.38-.2-.75-.38-1.14-.55a15.19,15.19,0,0,0-6.1-1.27"/><path class="cls-9" d="M318.56,156.84a13.72,13.72,0,0,1-5.45-1.11l1-2.07a11.2,11.2,0,0,0,9.11-.22l1.06,2a12.21,12.21,0,0,1-5.7,1.37m9-3.67L326,151.51a10.77,10.77,0,0,0,2.07-2.72l.1-.18,2,1-.11.21a13,13,0,0,1-2.51,3.3"/><path class="cls-7" d="M295.91,150.56h0a4.53,4.53,0,0,0-5.64-3l-18.5,5.54a4.53,4.53,0,0,0-3,5.64h0a4.54,4.54,0,0,0,5.64,3l18.5-5.55a4.53,4.53,0,0,0,3-5.64"/><path class="cls-9" d="M273.07,163.08a5.68,5.68,0,0,1-5.44-4.05,5.67,5.67,0,0,1,3.81-7.06l8.27-2.48.65,2.2-8.27,2.47a3.41,3.41,0,0,0-2.27,4.22,3.41,3.41,0,0,0,4.22,2.27l18.5-5.54a3.39,3.39,0,0,0-1.94-6.49L283,150.9l-.66-2.19,7.63-2.28a5.67,5.67,0,1,1,3.26,10.87l-18.51,5.54a5.35,5.35,0,0,1-1.62.24"/><rect class="cls-9" x="295.91" y="147.78" width="6.17" height="2.29" transform="matrix(0.95, -0.32, 0.32, 0.95, -31.86, 102.99)"/><path class="cls-9" d="M316.52,165.39a19.64,19.64,0,0,1-2.39-.34l.45-2.24a19.32,19.32,0,0,0,2.14.3Zm4.82-.11L321,163a18.45,18.45,0,0,0,2.12-.4l.56,2.22a23.77,23.77,0,0,1-2.38.45m-11.81-1.69a20.84,20.84,0,0,1-2.15-1.11l1.16-2a20.49,20.49,0,0,0,1.92,1Zm18.71-.44-1-2a18.6,18.6,0,0,0,1.88-1.08l1.24,1.92a19.78,19.78,0,0,1-2.09,1.2m-24.73-3.55a22.87,22.87,0,0,1-1.67-1.74l1.74-1.49a20.05,20.05,0,0,0,1.5,1.56Zm30.55-.71-1.63-1.6a18.42,18.42,0,0,0,1.42-1.63l1.81,1.41a21.46,21.46,0,0,1-1.6,1.82m-34.94-5a20.8,20.8,0,0,1-1-2.19l2.13-.85a19.39,19.39,0,0,0,.91,2Zm39.07-.91-2.07-1a21.54,21.54,0,0,0,.82-2l2.16.74a22.83,22.83,0,0,1-.91,2.24M296.83,147a21.45,21.45,0,0,1-.25-2.4l2.29-.1c0,.72.11,1.44.22,2.15Zm43.33-1-2.28-.25a19.41,19.41,0,0,0,.12-2.16h2.29a21.49,21.49,0,0,1-.13,2.41m-41-5.81-2.25-.39a23.52,23.52,0,0,1,.54-2.35l2.2.64c-.2.69-.36,1.4-.49,2.1m38.46-.57a21.45,21.45,0,0,0-.56-2.09l2.18-.71a21.22,21.22,0,0,1,.62,2.34Zm-36.3-5.52-2-1.11a22.63,22.63,0,0,1,1.29-2l1.87,1.32a20.71,20.71,0,0,0-1.15,1.83m34-.5a18.11,18.11,0,0,0-1.21-1.79l1.83-1.39a22.74,22.74,0,0,1,1.35,2Zm-29.94-4.55-1.53-1.71c.6-.53,1.23-1,1.88-1.51l1.34,1.86c-.58.42-1.15.88-1.69,1.36m25.77-.38a18.27,18.27,0,0,0-1.73-1.31l1.29-1.9a22.57,22.57,0,0,1,1.92,1.46Zm-20.32-3.1-.9-2.11a22,22,0,0,1,2.28-.82l.65,2.2a18.17,18.17,0,0,0-2,.73m14.77-.22a18.86,18.86,0,0,0-2.05-.67l.58-2.22a20,20,0,0,1,2.3.76Zm-8.49-1.29-.16-2.28a21.68,21.68,0,0,1,2.42,0l-.1,2.29c-.71,0-1.44,0-2.16,0"/><rect class="cls-9" x="236.08" y="164.21" width="8.3" height="3.73"/><rect class="cls-9" x="217.44" y="164.21" width="13.98" height="3.73"/><rect class="cls-9" x="494.22" y="164.21" width="13.98" height="3.73"/><rect class="cls-9" x="251.25" y="164.21" width="230.85" height="3.73"/></g></g></svg>